<svg id="visual" viewBox="0 0 900 600" width="900" height="600" xmlns="http://www.w3.org/2000/svg" xmlns:xlink="http://www.w3.org/1999/xlink" version="1.1"><g transform="translate(445.153476590822 302.5991110303104)"><path d="M129.6 -187.2C167.5 -150.8 197.4 -112.3 215.7 -67.4C234 -22.5 240.6 28.9 221.1 66.5C201.6 104.1 155.9 127.9 114.7 163.7C73.5 199.5 36.7 247.2 -16.8 270.4C-70.3 293.5 -140.7 292 -178.6 255.1C-216.4 218.2 -221.9 146 -223 85.8C-224.1 25.6 -221 -22.6 -219.8 -85.4C-218.7 -148.3 -219.5 -225.8 -183.2 -262.7C-146.9 -299.6 -73.5 -295.8 -13.8 -276.8C45.8 -257.8 91.7 -223.5 129.6 -187.2" fill="#9605d1"></path></g></svg>