<svg id="visual" viewBox="0 0 960 540" width="960" height="540" xmlns="http://www.w3.org/2000/svg" xmlns:xlink="http://www.w3.org/1999/xlink" version="1.1"><rect x="0" y="0" width="960" height="540" fill="#1C003F"></rect><defs><linearGradient id="grad1_0" x1="43.8%" y1="100%" x2="100%" y2="0%"><stop offset="14.444444444444446%" stop-color="#6815a9" stop-opacity="1"></stop><stop offset="85.55555555555554%" stop-color="#6815a9" stop-opacity="1"></stop></linearGradient></defs><defs><linearGradient id="grad1_1" x1="43.8%" y1="100%" x2="100%" y2="0%"><stop offset="14.444444444444446%" stop-color="#6815a9" stop-opacity="1"></stop><stop offset="85.55555555555554%" stop-color="#3f0a72" stop-opacity="1"></stop></linearGradient></defs><defs><linearGradient id="grad1_2" x1="43.8%" y1="100%" x2="100%" y2="0%"><stop offset="14.444444444444446%" stop-color="#1c003f" stop-opacity="1"></stop><stop offset="85.55555555555554%" stop-color="#3f0a72" stop-opacity="1"></stop></linearGradient></defs><defs><linearGradient id="grad2_0" x1="0%" y1="100%" x2="56.3%" y2="0%"><stop offset="14.444444444444446%" stop-color="#6815a9" stop-opacity="1"></stop><stop offset="85.55555555555554%" stop-color="#6815a9" stop-opacity="1"></stop></linearGradient></defs><defs><linearGradient id="grad2_1" x1="0%" y1="100%" x2="56.3%" y2="0%"><stop offset="14.444444444444446%" stop-color="#3f0a72" stop-opacity="1"></stop><stop offset="85.55555555555554%" stop-color="#6815a9" stop-opacity="1"></stop></linearGradient></defs><defs><linearGradient id="grad2_2" x1="0%" y1="100%" x2="56.3%" y2="0%"><stop offset="14.444444444444446%" stop-color="#3f0a72" stop-opacity="1"></stop><stop offset="85.55555555555554%" stop-color="#1c003f" stop-opacity="1"></stop></linearGradient></defs><g transform="translate(960, 540)"><path d="M-189 0C-180.1 -11 -171.3 -22 -166.7 -33.2C-162.2 -44.3 -161.9 -55.6 -158 -65.4C-154.1 -75.3 -146.5 -83.6 -141.3 -94.4C-136.2 -105.3 -133.3 -118.8 -124.5 -124.5C-115.6 -130.1 -100.7 -128.1 -92.2 -138C-83.7 -147.9 -81.7 -169.8 -72.3 -174.6C-63 -179.4 -46.4 -167.2 -33.2 -166.7C-19.9 -166.3 -10 -177.6 0 -189L0 0Z" fill="#2c0558"></path><path d="M-126 0C-120.1 -7.3 -114.2 -14.7 -111.2 -22.1C-108.1 -29.5 -107.9 -37.1 -105.3 -43.6C-102.7 -50.2 -97.7 -55.7 -94.2 -63C-90.8 -70.2 -88.9 -79.2 -83 -83C-77.1 -86.8 -67.1 -85.4 -61.5 -92C-55.8 -98.6 -54.4 -113.2 -48.2 -116.4C-42 -119.6 -31 -111.5 -22.1 -111.2C-13.3 -110.9 -6.6 -118.4 0 -126L0 0Z" fill="#53108d"></path><path d="M-63 0C-60 -3.7 -57.1 -7.3 -55.6 -11.1C-54.1 -14.8 -54 -18.5 -52.7 -21.8C-51.4 -25.1 -48.8 -27.9 -47.1 -31.5C-45.4 -35.1 -44.4 -39.6 -41.5 -41.5C-38.5 -43.4 -33.6 -42.7 -30.7 -46C-27.9 -49.3 -27.2 -56.6 -24.1 -58.2C-21 -59.8 -15.5 -55.7 -11.1 -55.6C-6.6 -55.4 -3.3 -59.2 0 -63L0 0Z" fill="#6815a9"></path></g><g transform="translate(0, 0)"><path d="M189 0C176 9.6 163 19.2 163.8 32.6C164.6 46 179.1 63.1 174.6 72.3C170.1 81.6 146.4 82.9 136.4 91.1C126.3 99.3 129.8 114.4 126.6 126.6C123.4 138.8 113.5 148.1 102.2 153C90.9 157.9 78.2 158.3 67 161.7C55.7 165.1 46 171.5 35.1 176.5C24.2 181.6 12.1 185.3 0 189L0 0Z" fill="#2c0558"></path><path d="M126 0C117.3 6.4 108.7 12.8 109.2 21.7C109.7 30.6 119.4 42.1 116.4 48.2C113.4 54.4 97.6 55.3 90.9 60.7C84.2 66.2 86.5 76.2 84.4 84.4C82.3 92.5 75.7 98.7 68.1 102C60.6 105.2 52.1 105.5 44.6 107.8C37.2 110.1 30.7 114.3 23.4 117.7C16.1 121.1 8.1 123.5 0 126L0 0Z" fill="#53108d"></path><path d="M63 0C58.7 3.2 54.3 6.4 54.6 10.9C54.9 15.3 59.7 21 58.2 24.1C56.7 27.2 48.8 27.6 45.5 30.4C42.1 33.1 43.3 38.1 42.2 42.2C41.1 46.3 37.8 49.4 34.1 51C30.3 52.6 26.1 52.8 22.3 53.9C18.6 55 15.3 57.2 11.7 58.8C8.1 60.5 4 61.8 0 63L0 0Z" fill="#6815a9"></path></g></svg>