<svg id="visual" viewBox="0 0 900 600" width="900" height="600" xmlns="http://www.w3.org/2000/svg" xmlns:xlink="http://www.w3.org/1999/xlink" version="1.1"><g transform="translate(459.4850082688481 276.9550648184028)"><path d="M170.3 -229.9C210.9 -204.9 227.2 -142 224.5 -87.7C221.8 -33.4 200 12.3 184.2 59.4C168.3 106.6 158.2 155.2 128.5 194.1C98.7 232.9 49.4 262 -12 278.5C-73.5 295.1 -146.9 299.3 -189.7 264.7C-232.5 230.1 -244.7 156.8 -243.7 94.5C-242.8 32.3 -228.9 -18.7 -215.8 -73.5C-202.7 -128.3 -190.4 -186.7 -154.6 -213.2C-118.7 -239.8 -59.4 -234.4 2.7 -238.2C64.9 -241.9 129.7 -254.9 170.3 -229.9" fill="#9605d1"></path></g></svg>