<svg id="visual" viewBox="0 0 900 600" width="900" height="600" xmlns="http://www.w3.org/2000/svg" xmlns:xlink="http://www.w3.org/1999/xlink" version="1.1"><g transform="translate(483.9944302603654 291.7662685652266)"><path d="M128.9 -196.6C158.7 -155.8 168.8 -107 199.8 -54.7C230.8 -2.5 282.8 53.2 275.4 93.7C268 134.3 201.3 159.8 145.5 200C89.7 240.2 44.9 295.1 4.1 289.5C-36.7 283.9 -73.5 217.8 -131.7 178.4C-189.8 138.9 -269.4 126.2 -310.5 81.6C-351.6 37 -354.1 -39.5 -322.9 -95.4C-291.6 -151.4 -226.6 -186.9 -167.2 -218.1C-107.8 -249.3 -53.9 -276.2 -2.2 -273.2C49.6 -270.2 99.1 -237.5 128.9 -196.6" fill="#9605d1"></path></g></svg>