<svg id="visual" viewBox="0 0 900 600" width="900" height="600" xmlns="http://www.w3.org/2000/svg" xmlns:xlink="http://www.w3.org/1999/xlink" version="1.1"><g transform="translate(480.37061216820985 312.7095922213239)"><path d="M155.6 -202.7C204.3 -178.9 248.1 -136.9 251.1 -90.4C254.1 -43.9 216.2 7 192.5 57.2C168.9 107.4 159.4 156.8 129.6 181.4C99.9 205.9 50 205.4 0.1 205.3C-49.8 205.2 -99.5 205.3 -143.1 185.3C-186.7 165.3 -224.1 125.1 -258.7 71.6C-293.2 18 -324.9 -48.9 -306.7 -98C-288.5 -147.1 -220.4 -178.3 -160.9 -198.7C-101.5 -219 -50.7 -228.5 1.4 -230.4C53.5 -232.3 107 -226.6 155.6 -202.7" fill="#9605d1"></path></g></svg>