<svg id="visual" viewBox="0 0 900 600" width="900" height="600" xmlns="http://www.w3.org/2000/svg" xmlns:xlink="http://www.w3.org/1999/xlink" version="1.1"><g transform="translate(392.1808482228811 256.7204517954199)"><path d="M182.5 -221.6C240.3 -209.1 293.7 -160.9 311.7 -102.1C329.7 -43.3 312.3 26.3 281.8 82.8C251.4 139.4 208 182.9 158.9 229.5C109.7 276 54.9 325.5 -1.9 328.1C-58.6 330.6 -117.2 286.3 -150.9 234.7C-184.7 183.2 -193.6 124.5 -197.8 73.3C-201.9 22.1 -201.3 -21.5 -202.6 -80.8C-203.9 -140 -207.2 -214.8 -173.7 -235.2C-140.3 -255.6 -70.1 -221.5 -3.9 -216.2C62.3 -210.8 124.6 -234 182.5 -221.6" fill="#9605d1"></path></g></svg>