<svg id="visual" viewBox="0 0 900 600" width="900" height="600" xmlns="http://www.w3.org/2000/svg" xmlns:xlink="http://www.w3.org/1999/xlink" version="1.1"><g transform="translate(453.96310851124406 277.09254358902484)"><path d="M163.1 -212.3C219.2 -183.7 277.9 -146.5 289.2 -97.4C300.5 -48.2 264.4 13 237.7 71.7C210.9 130.3 193.6 186.5 155.6 234C117.6 281.5 58.8 320.2 -7.2 330.2C-73.3 340.2 -146.6 321.4 -176.3 271.2C-206 221 -192.2 139.5 -213.5 70.2C-234.9 0.9 -291.5 -56.1 -298.5 -116.3C-305.5 -176.5 -263 -240 -205 -267.9C-146.9 -295.9 -73.5 -288.5 -10 -274.7C53.5 -261 107 -240.9 163.1 -212.3" fill="#9605d1"></path></g></svg>