<svg id="visual" viewBox="0 0 900 400" width="900" height="400" xmlns="http://www.w3.org/2000/svg" xmlns:xlink="http://www.w3.org/1999/xlink" version="1.1"><rect x="0" y="0" width="900" height="400" fill="#1C003F"></rect><defs><linearGradient id="grad1_0" x1="55.6%" y1="100%" x2="100%" y2="0%"><stop offset="5%" stop-color="#6815a9" stop-opacity="1"></stop><stop offset="95%" stop-color="#6815a9" stop-opacity="1"></stop></linearGradient></defs><defs><linearGradient id="grad1_1" x1="55.6%" y1="100%" x2="100%" y2="0%"><stop offset="5%" stop-color="#6815a9" stop-opacity="1"></stop><stop offset="95%" stop-color="#4c0e84" stop-opacity="1"></stop></linearGradient></defs><defs><linearGradient id="grad1_2" x1="55.6%" y1="100%" x2="100%" y2="0%"><stop offset="5%" stop-color="#320661" stop-opacity="1"></stop><stop offset="95%" stop-color="#4c0e84" stop-opacity="1"></stop></linearGradient></defs><defs><linearGradient id="grad1_3" x1="55.6%" y1="100%" x2="100%" y2="0%"><stop offset="5%" stop-color="#320661" stop-opacity="1"></stop><stop offset="95%" stop-color="#1c003f" stop-opacity="1"></stop></linearGradient></defs><defs><linearGradient id="grad2_0" x1="0%" y1="100%" x2="44.4%" y2="0%"><stop offset="5%" stop-color="#6815a9" stop-opacity="1"></stop><stop offset="95%" stop-color="#6815a9" stop-opacity="1"></stop></linearGradient></defs><defs><linearGradient id="grad2_1" x1="0%" y1="100%" x2="44.4%" y2="0%"><stop offset="5%" stop-color="#4c0e84" stop-opacity="1"></stop><stop offset="95%" stop-color="#6815a9" stop-opacity="1"></stop></linearGradient></defs><defs><linearGradient id="grad2_2" x1="0%" y1="100%" x2="44.4%" y2="0%"><stop offset="5%" stop-color="#4c0e84" stop-opacity="1"></stop><stop offset="95%" stop-color="#320661" stop-opacity="1"></stop></linearGradient></defs><defs><linearGradient id="grad2_3" x1="0%" y1="100%" x2="44.4%" y2="0%"><stop offset="5%" stop-color="#1c003f" stop-opacity="1"></stop><stop offset="95%" stop-color="#320661" stop-opacity="1"></stop></linearGradient></defs><g transform="translate(900, 400)"><path d="M-140 0C-138.2 -9.2 -136.4 -18.5 -132.4 -26.3C-128.4 -34.2 -122.2 -40.8 -119.2 -49.4C-116.2 -58 -116.4 -68.6 -109.8 -73.3C-103.1 -78 -89.4 -76.8 -84.1 -84.1C-78.9 -91.5 -81.9 -107.6 -77.8 -116.4C-73.6 -125.2 -62.2 -126.8 -52 -125.6C-41.9 -124.5 -32.9 -120.7 -24.4 -122.6C-15.9 -124.5 -8 -132.3 0 -140L0 0Z" fill="#270450"></path><path d="M-105 0C-103.7 -6.9 -102.3 -13.8 -99.3 -19.8C-96.3 -25.7 -91.6 -30.6 -89.4 -37C-87.1 -43.5 -87.3 -51.5 -82.3 -55C-77.3 -58.5 -67.1 -57.6 -63.1 -63.1C-59.1 -68.7 -61.5 -80.7 -58.3 -87.3C-55.2 -93.9 -46.7 -95.1 -39 -94.2C-31.4 -93.4 -24.6 -90.5 -18.3 -91.9C-11.9 -93.4 -6 -99.2 0 -105L0 0Z" fill="#3f0a72"></path><path d="M-70 0C-69.1 -4.6 -68.2 -9.2 -66.2 -13.2C-64.2 -17.1 -61.1 -20.4 -59.6 -24.7C-58.1 -29 -58.2 -34.3 -54.9 -36.7C-51.5 -39 -44.7 -38.4 -42.1 -42.1C-39.4 -45.8 -41 -53.8 -38.9 -58.2C-36.8 -62.6 -31.1 -63.4 -26 -62.8C-20.9 -62.3 -16.4 -60.3 -12.2 -61.3C-8 -62.3 -4 -66.1 0 -70L0 0Z" fill="#5a1196"></path><path d="M-35 0C-34.6 -2.3 -34.1 -4.6 -33.1 -6.6C-32.1 -8.6 -30.5 -10.2 -29.8 -12.3C-29 -14.5 -29.1 -17.2 -27.4 -18.3C-25.8 -19.5 -22.4 -19.2 -21 -21C-19.7 -22.9 -20.5 -26.9 -19.4 -29.1C-18.4 -31.3 -15.6 -31.7 -13 -31.4C-10.5 -31.1 -8.2 -30.2 -6.1 -30.6C-4 -31.1 -2 -33.1 0 -35L0 0Z" fill="#6815a9"></path></g><g transform="translate(0, 0)"><path d="M140 0C133.2 8.2 126.4 16.3 122.6 24.4C118.8 32.5 117.9 40.5 115.5 47.8C113.1 55.2 109.1 61.9 107.3 71.7C105.4 81.4 105.7 94.2 99 99C92.3 103.8 78.8 100.5 70.6 105.6C62.3 110.7 59.5 124.2 52 125.6C44.6 127.1 32.6 116.3 23.2 116.7C13.8 117.1 6.9 128.5 0 140L0 0Z" fill="#270450"></path><path d="M105 0C99.9 6.1 94.8 12.2 91.9 18.3C89.1 24.4 88.4 30.4 86.6 35.9C84.8 41.4 81.8 46.4 80.4 53.8C79.1 61.1 79.2 70.7 74.2 74.2C69.3 77.8 59.1 75.4 52.9 79.2C46.8 83 44.6 93.2 39 94.2C33.5 95.3 24.5 87.3 17.4 87.5C10.3 87.8 5.2 96.4 0 105L0 0Z" fill="#3f0a72"></path><path d="M70 0C66.6 4.1 63.2 8.2 61.3 12.2C59.4 16.2 58.9 20.2 57.7 23.9C56.5 27.6 54.6 31 53.6 35.8C52.7 40.7 52.8 47.1 49.5 49.5C46.2 51.9 39.4 50.2 35.3 52.8C31.2 55.4 29.7 62.1 26 62.8C22.3 63.5 16.3 58.2 11.6 58.4C6.9 58.5 3.4 64.3 0 70L0 0Z" fill="#5a1196"></path><path d="M35 0C33.3 2 31.6 4.1 30.6 6.1C29.7 8.1 29.5 10.1 28.9 12C28.3 13.8 27.3 15.5 26.8 17.9C26.4 20.4 26.4 23.6 24.7 24.7C23.1 25.9 19.7 25.1 17.6 26.4C15.6 27.7 14.9 31.1 13 31.4C11.2 31.8 8.2 29.1 5.8 29.2C3.4 29.3 1.7 32.1 0 35L0 0Z" fill="#6815a9"></path></g></svg>