<svg id="visual" viewBox="0 0 900 80" width="900" height="80" xmlns="http://www.w3.org/2000/svg" xmlns:xlink="http://www.w3.org/1999/xlink" version="1.1"><path d="M0 55L7.8 50.5C15.7 46 31.3 37 47.2 37.3C63 37.7 79 47.3 94.8 54C110.7 60.7 126.3 64.3 142 58.7C157.7 53 173.3 38 189.2 35C205 32 221 41 236.8 45.5C252.7 50 268.3 50 284.2 46C300 42 316 34 331.8 30.3C347.7 26.7 363.3 27.3 379 26.3C394.7 25.3 410.3 22.7 426.2 28.2C442 33.7 458 47.3 473.8 54.3C489.7 61.3 505.3 61.7 521 57.2C536.7 52.7 552.3 43.3 568.2 36.8C584 30.3 600 26.7 615.8 31.2C631.7 35.7 647.3 48.3 663.2 52.5C679 56.7 695 52.3 710.8 44.2C726.7 36 742.3 24 758 18.2C773.7 12.3 789.3 12.7 805.2 18.5C821 24.3 837 35.7 852.8 45C868.7 54.3 884.3 61.7 892.2 65.3L900 69L900 81L892.2 81C884.3 81 868.7 81 852.8 81C837 81 821 81 805.2 81C789.3 81 773.7 81 758 81C742.3 81 726.7 81 710.8 81C695 81 679 81 663.2 81C647.3 81 631.7 81 615.8 81C600 81 584 81 568.2 81C552.3 81 536.7 81 521 81C505.3 81 489.7 81 473.8 81C458 81 442 81 426.2 81C410.3 81 394.7 81 379 81C363.3 81 347.7 81 331.8 81C316 81 300 81 284.2 81C268.3 81 252.7 81 236.8 81C221 81 205 81 189.2 81C173.3 81 157.7 81 142 81C126.3 81 110.7 81 94.8 81C79 81 63 81 47.2 81C31.3 81 15.7 81 7.8 81L0 81Z" fill="#4a0986" stroke-linecap="round" stroke-linejoin="miter"></path></svg>