<svg class="animated" id="freepik_stories-lack-of-leadership" xmlns="http://www.w3.org/2000/svg" viewBox="0 0 500 500" version="1.1" xmlns:xlink="http://www.w3.org/1999/xlink" xmlns:svgjs="http://svgjs.com/svgjs"><style>svg#freepik_stories-lack-of-leadership:not(.animated) .animable {opacity: 0;}svg#freepik_stories-lack-of-leadership.animated #freepik--Floor--inject-141 {animation: 1s 1 forwards cubic-bezier(.36,-0.01,.5,1.38) lightSpeedRight;animation-delay: 0s;}svg#freepik_stories-lack-of-leadership.animated #freepik--Clouds--inject-141 {animation: 1s 1 forwards cubic-bezier(.36,-0.01,.5,1.38) slideUp,1.5s Infinite  linear wind;animation-delay: 0s,1s;}svg#freepik_stories-lack-of-leadership.animated #freepik--Shadows--inject-141 {animation: 1s 1 forwards cubic-bezier(.36,-0.01,.5,1.38) slideLeft,1.5s Infinite  linear wind;animation-delay: 0s,1s;}svg#freepik_stories-lack-of-leadership.animated #freepik--Symbols--inject-141 {animation: 1s 1 forwards cubic-bezier(.36,-0.01,.5,1.38) slideLeft,1.5s Infinite  linear heartbeat;animation-delay: 0s,1s;}svg#freepik_stories-lack-of-leadership.animated #freepik--Character--inject-141 {animation: 0.7s 1 forwards ease-in fadeIn;animation-delay: 0s;}svg#freepik_stories-lack-of-leadership.animated #freepik--character-3--inject-141 {animation: 0.7s 1 forwards ease-in fadeIn,1.5s Infinite  linear floating;animation-delay: 0s,0.7s;}svg#freepik_stories-lack-of-leadership.animated #freepik--character-2--inject-141 {animation: 1s 1 forwards cubic-bezier(.36,-0.01,.5,1.38) slideUp;animation-delay: 0s;}svg#freepik_stories-lack-of-leadership.animated #freepik--character-1--inject-141 {animation: 1s 1 forwards cubic-bezier(.36,-0.01,.5,1.38) zoomIn;animation-delay: 0s;}            @keyframes lightSpeedRight {              from {                transform: translate3d(50%, 0, 0) skewX(-20deg);                opacity: 0;              }              60% {                transform: skewX(10deg);                opacity: 1;              }              80% {                transform: skewX(-2deg);              }              to {                opacity: 1;                transform: translate3d(0, 0, 0);              }            }                    @keyframes slideUp {                0% {                    opacity: 0;                    transform: translateY(30px);                }                100% {                    opacity: 1;                    transform: inherit;                }            }                    @keyframes wind {                0% {                    transform: rotate( 0deg );                }                25% {                    transform: rotate( 1deg );                }                75% {                    transform: rotate( -1deg );                }            }                    @keyframes slideLeft {                0% {                    opacity: 0;                    transform: translateX(-30px);                }                100% {                    opacity: 1;                    transform: translateX(0);                }            }                    @keyframes heartbeat {                0% {                    transform: scale(1);                }                10% {                    transform: scale(1.1);                }                30% {                    transform: scale(1);                }                40% {                    transform: scale(1);                }                50% {                    transform: scale(1.1);                }                60% {                    transform: scale(1);                }                100% {                    transform: scale(1);                }            }                    @keyframes fadeIn {                0% {                    opacity: 0;                }                100% {                    opacity: 1;                }            }                    @keyframes floating {                0% {                    opacity: 1;                    transform: translateY(0px);                }                50% {                    transform: translateY(-10px);                }                100% {                    opacity: 1;                    transform: translateY(0px);                }            }                    @keyframes zoomIn {                0% {                    opacity: 0;                    transform: scale(0.5);                }                100% {                    opacity: 1;                    transform: scale(1);                }            }        </style><g id="freepik--Floor--inject-141" class="animable" style="transform-origin: 249.901px 323.978px;"><g id="freepik--floor--inject-141" class="animable" style="transform-origin: 249.901px 323.978px;"><path id="freepik--floor--inject-141" d="M96.65,260.61c-85.77,49.52-85.77,129.81,0,179.33s224.85,49.53,310.62,0,85.77-129.81,0-179.33S182.43,211.08,96.65,260.61Z" style="fill: rgb(38, 50, 56); transform-origin: 251.96px 350.275px;" class="animable"></path><path d="M461,283.09c-10.31-18.63-28.27-36.15-53.87-50.93-85.75-49.51-224.77-49.51-310.51,0C53.64,257,32.22,289.5,32.32,322c0,4.64,0,23.18,0,27.83-.1,32.52,21.32,65,64.29,89.87,19.76,11.4,42.33,20.18,66.44,26.33h0l79.7-15.22L271,419.76l103.57-20.82,21.89-66.16,56.52-9.09L461,311.38Z" style="fill: rgb(69, 90, 100); transform-origin: 246.66px 330.529px;" id="eldn0k85kf6ur" class="animable"></path><polygon points="374.51 356.49 374.51 398.94 396.41 332.78 396.41 291.7 374.51 356.49" style="fill: rgb(55, 71, 79); transform-origin: 385.46px 345.32px;" id="elatwr73dnjgw" class="animable"></polygon><polygon points="270.95 378.38 270.95 419.76 242.76 450.83 246.65 434.79 242.71 424.38 242.68 410.53 270.95 378.38" style="fill: rgb(38, 50, 56); transform-origin: 256.815px 414.605px;" id="elpthh6c03lt" class="animable"></polygon><polygon points="452.93 323.69 452.93 279.61 460.99 268.27 460.99 311.38 452.93 323.69" style="fill: rgb(55, 71, 79); transform-origin: 456.96px 295.98px;" id="eln8ii13zi2q" class="animable"></polygon><polygon points="300.33 384.1 313.07 398.94 331.45 404.41 332.32 407.42 270.95 419.76 270.95 378.38 300.33 384.1" style="fill: rgb(55, 71, 79); transform-origin: 301.635px 399.07px;" id="elple1y8o4v4h" class="animable"></polygon><path d="M96.61,232.16C53.64,257,32.22,289.5,32.32,322c0,4.64,0,23.18,0,27.83-.1,32.52,21.32,65,64.29,89.87,19.76,11.4,42.33,20.18,66.44,26.33V205.83C139,212,116.37,220.75,96.61,232.16Z" style="fill: rgb(55, 71, 79); transform-origin: 97.6848px 335.93px;" id="el3pztgz2i54k" class="animable"></path><path d="M465.09,260.62c-10.5-19-28.81-36.84-54.9-51.91-87.39-50.45-229.07-50.45-316.45,0-43.59,25.17-65.43,58.13-65.53,91.12v8.25c.11,33,21.94,66,65.53,91.12,20.14,11.62,43.13,20.57,67.71,26.84h0l81.22-15.51,28.73-31.67L377,357.64l22.31-67.42,57.6-9.27,8.21-12.54Z" style="fill: rgb(241, 174, 0); transform-origin: 246.665px 298.456px;" id="elpj53r7p22kl" class="animable"></path><path id="freepik--floor--inject-141" d="M410.19,208.71c-87.39-50.45-229.07-50.45-316.45,0S6.36,341,93.74,391.42C113.88,403,136.87,412,161.45,418.25h0l81.22-15.51,28.73-31.67L377,349.86l22.31-67.43,57.6-9.26,8.21-12.55C454.59,241.64,436.28,223.78,410.19,208.71Z" style="fill: rgb(241, 174, 0); transform-origin: 246.662px 294.561px;" class="animable"></path><g id="freepik--floor--inject-141"><path d="M410.19,208.71c-87.39-50.45-229.07-50.45-316.45,0S6.36,341,93.74,391.42C113.88,403,136.87,412,161.45,418.25h0l81.22-15.51,28.73-31.67L377,349.86l22.31-67.43,57.6-9.26,8.21-12.55C454.59,241.64,436.28,223.78,410.19,208.71Z" style="fill: rgb(255, 255, 255); opacity: 0.45; transform-origin: 246.662px 294.561px;" class="animable"></path></g><path d="M181.1,177.5c-31.93,6.14-61.94,16.54-87.36,31.21-24.09,13.91-41.52,30.2-52.33,47.55l219.3,126.61,10.7-11.8L377,349.86l16.46-49.77Z" style="fill: rgb(250, 250, 250); transform-origin: 217.435px 280.185px;" id="elziz9dvwblb" class="animable"></path></g></g><g id="freepik--Clouds--inject-141" class="animable animator-active" style="transform-origin: 270.867px 89.9097px;"><path id="freepik--Cloud--inject-141" d="M456.6,69.2a9.84,9.84,0,0,0-3.27-.6c-1.06-.08-1.4-.29-1.61-.52a7.81,7.81,0,0,0-9.39-2.78,6,6,0,0,0-7.08-4c.12-3.3-4.1-6.85-7.89-7.66-3.63-.77-6.8-.45-8.87,1.94-2.22-4.33-10.92-5.55-15.62-3.26-2.71,1.32-5,2.67-6.13,5.15a10.44,10.44,0,0,0-1,4.93c-1.83-1.61-5.5-2-8-1.1-2.64,1-2.84,3-3,5a9.16,9.16,0,0,0-4.81-.08c-1.67.49-2.63,1.8-2.4,2.85-1.31-.07-4.45,1-4.09,2.38.41,1.56,4,1.41,5.32,1.36a24.85,24.85,0,0,0,3.75-.59,5.93,5.93,0,0,0,1.95.37c2.28,0,3.24-1,3.61-1.84,1.11,2.34,5.07,4.12,7.88,4.84,5.27,1.35,12.73.53,16-3.41a5.8,5.8,0,0,0,1.57,1.91,9.12,9.12,0,0,0,4.88,2c2.16.2,8,.48,9.61-3,1.16,2.28,6.34,3.33,10.27,2.77a16.34,16.34,0,0,0,4.41-1.33,25.66,25.66,0,0,0,2.53-1.52,2.1,2.1,0,0,1,2.16-.15,12.79,12.79,0,0,0,8.59,0C458.21,72,458.67,70.14,456.6,69.2Z" style="fill: rgb(240, 240, 240); transform-origin: 415.669px 63.6901px;" class="animable"></path><path id="freepik--cloud--inject-141" d="M154.65,62.6a9.69,9.69,0,0,0-3.28-.6c-1.06-.09-1.4-.3-1.6-.53a7.82,7.82,0,0,0-9.39-2.77,6,6,0,0,0-7.09-4c.12-3.3-4.1-6.85-7.88-7.65s-6.8-.45-8.88,1.94c-2.21-4.33-10.91-5.56-15.62-3.26-2.7,1.31-5,2.67-6.12,5.15a10.29,10.29,0,0,0-1,4.93c-1.84-1.62-5.51-2.06-8-1.11-2.64,1-2.84,3-3,5A9.34,9.34,0,0,0,78,59.64c-1.66.5-2.62,1.8-2.39,2.86-1.32-.08-4.46,1-4.1,2.38.41,1.56,4,1.4,5.33,1.35a23.53,23.53,0,0,0,3.74-.59,5.69,5.69,0,0,0,2,.37c2.28,0,3.25-1,3.61-1.84,1.12,2.35,5.08,4.13,7.88,4.85,5.27,1.35,12.73.53,16-3.42a5.94,5.94,0,0,0,1.57,1.92,9.11,9.11,0,0,0,4.88,2c2.17.21,8,.48,9.62-3,1.16,2.29,6.33,3.33,10.26,2.77A15.46,15.46,0,0,0,140.77,68a27.72,27.72,0,0,0,2.53-1.51,2.11,2.11,0,0,1,2.16-.15,12.92,12.92,0,0,0,8.59,0C156.25,65.38,156.71,63.54,154.65,62.6Z" style="fill: rgb(240, 240, 240); transform-origin: 113.727px 57.11px;" class="animable"></path><path id="freepik--cloud--inject-141" d="M469.2,129.62a7.68,7.68,0,0,0-2.59-.48c-.84-.07-1.1-.23-1.27-.42a6.17,6.17,0,0,0-7.42-2.19,4.76,4.76,0,0,0-5.6-3.17c.09-2.61-3.25-5.41-6.24-6s-5.38-.36-7,1.53c-1.75-3.42-8.63-4.39-12.35-2.58-2.14,1-4,2.12-4.84,4.08a8.09,8.09,0,0,0-.81,3.9,6.86,6.86,0,0,0-6.29-.88c-2.09.81-2.25,2.38-2.35,4a7.18,7.18,0,0,0-3.8-.07c-1.32.39-2.08,1.42-1.9,2.25-1-.05-3.52.79-3.23,1.89s3.15,1.11,4.21,1.07a19.29,19.29,0,0,0,3-.47,4.43,4.43,0,0,0,1.54.3c1.8,0,2.56-.79,2.85-1.46.88,1.85,4,3.26,6.23,3.83,4.17,1.07,10.07.42,12.64-2.7a4.67,4.67,0,0,0,1.24,1.51,7.26,7.26,0,0,0,3.86,1.57c1.71.16,6.31.38,7.6-2.35.92,1.81,5,2.64,8.12,2.2a13.08,13.08,0,0,0,3.49-1,19.28,19.28,0,0,0,2-1.21,1.68,1.68,0,0,1,1.71-.11,10.21,10.21,0,0,0,6.79,0C470.47,131.81,470.83,130.36,469.2,129.62Z" style="fill: rgb(245, 245, 245); transform-origin: 436.87px 125.322px;" class="animable"></path></g><g id="freepik--Shadows--inject-141" class="animable" style="transform-origin: 213.435px 308.655px;"><path id="freepik--Shadow--inject-141" d="M291.86,320.68a84,84,0,0,1,18.37,9.38c6.43,4.34,12.31,9.59,19.16,13.2,8.91,4.68,19.16,6.38,29.19,5.9,5.68-.27,11.86-1.52,15.51-6a6.8,6.8,0,0,0,1.71-4c0-2.19-1.46-4.07-3-5.57-8.23-8-19.75-11.35-30.86-13.94s-17.76-5.81-28.65-11.63c-4.66-2.5-9.26-5.17-14-7.52l-.11-.06a70.79,70.79,0,0,0-7.14-3.42c-3.22-1.19-5.88-2.05-9.43-1.78s-7.51.2-10,3.08a8.26,8.26,0,0,0-1.1,8.85C275,315.08,284.43,318,291.86,320.68Z" style="fill: rgb(224, 224, 224); transform-origin: 323.25px 322.214px;" class="animable"></path><g id="freepik--shadow--inject-141"><ellipse cx="99.18" cy="338.08" rx="48.11" ry="27.78" style="opacity: 0.15; transform-origin: 99.18px 338.08px;" class="animable"></ellipse></g><ellipse id="freepik--shadow--inject-141" cx="202.36" cy="279.85" rx="49.2" ry="28.4" style="fill: rgb(224, 224, 224); transform-origin: 202.36px 279.85px;" class="animable"></ellipse></g><g id="freepik--Symbols--inject-141" class="animable" style="transform-origin: 152.88px 83.055px;"><g id="freepik--exclamation-sign--inject-141" class="animable" style="transform-origin: 56.299px 104.026px;"><path d="M69.8,105.08a.86.86,0,0,1,.19.66.89.89,0,0,1-.33.61L66.35,109a.83.83,0,0,1-.66.19.82.82,0,0,1-.61-.33L63,106.2a.86.86,0,0,1-.19-.66.89.89,0,0,1,.33-.61l3.31-2.64a.83.83,0,0,1,.66-.19.85.85,0,0,1,.61.33Zm-4.51-5.64a.91.91,0,0,1-.14,1.27l-3.31,2.65a.86.86,0,0,1-.66.18.8.8,0,0,1-.61-.33l-9-11.3a.87.87,0,0,1-.18-.67.82.82,0,0,1,.32-.6L55,88a.88.88,0,0,1,.67-.19.86.86,0,0,1,.6.33Z" style="fill: rgb(241, 174, 0); transform-origin: 60.6889px 98.5007px;" id="el7put8zmljp5" class="animable"></path><g id="eld0hzxqzgygo"><g style="opacity: 0.5; transform-origin: 60.6889px 98.5007px;" class="animable"><path d="M69.8,105.08a.86.86,0,0,1,.19.66.89.89,0,0,1-.33.61L66.35,109a.83.83,0,0,1-.66.19.82.82,0,0,1-.61-.33L63,106.2a.86.86,0,0,1-.19-.66.89.89,0,0,1,.33-.61l3.31-2.64a.83.83,0,0,1,.66-.19.85.85,0,0,1,.61.33Zm-4.51-5.64a.91.91,0,0,1-.14,1.27l-3.31,2.65a.86.86,0,0,1-.66.18.8.8,0,0,1-.61-.33l-9-11.3a.87.87,0,0,1-.18-.67.82.82,0,0,1,.32-.6L55,88a.88.88,0,0,1,.67-.19.86.86,0,0,1,.6.33Z" style="fill: rgb(255, 255, 255); transform-origin: 60.6889px 98.5007px;" id="elkn0vhs7ufx" class="animable"></path></g></g><path d="M64.35,115.08a.9.9,0,0,1,.38.58.86.86,0,0,1-.14.68l-2.37,3.51a.84.84,0,0,1-.57.38.89.89,0,0,1-.68-.13l-2.82-1.9a.93.93,0,0,1-.24-1.26l2.37-3.51a.87.87,0,0,1,.58-.38.86.86,0,0,1,.68.14Zm-6-4a.92.92,0,0,1,.25,1.26l-2.37,3.51a.86.86,0,0,1-.58.38.89.89,0,0,1-.68-.13L43,108a.9.9,0,0,1-.38-.58.86.86,0,0,1,.14-.68l2.37-3.51a.82.82,0,0,1,.57-.38.86.86,0,0,1,.68.14Z" style="fill: rgb(241, 174, 0); transform-origin: 53.675px 111.54px;" id="elq4391tdpbw" class="animable"></path><g id="elbuqzahe2n3v"><g style="opacity: 0.2; transform-origin: 53.675px 111.54px;" class="animable"><path d="M64.35,115.08a.9.9,0,0,1,.38.58.86.86,0,0,1-.14.68l-2.37,3.51a.84.84,0,0,1-.57.38.89.89,0,0,1-.68-.13l-2.82-1.9a.93.93,0,0,1-.24-1.26l2.37-3.51a.87.87,0,0,1,.58-.38.86.86,0,0,1,.68.14Zm-6-4a.92.92,0,0,1,.25,1.26l-2.37,3.51a.86.86,0,0,1-.58.38.89.89,0,0,1-.68-.13L43,108a.9.9,0,0,1-.38-.58.86.86,0,0,1,.14-.68l2.37-3.51a.82.82,0,0,1,.57-.38.86.86,0,0,1,.68.14Z" style="fill: rgb(255, 255, 255); transform-origin: 53.675px 111.54px;" id="el2lqf0gsk5j" class="animable"></path></g></g></g><g id="freepik--exclamation-sign--inject-141" class="animable" style="transform-origin: 249.456px 62.0865px;"><path d="M238.07,60.49a.89.89,0,0,1,.61-.33.86.86,0,0,1,.66.19L242.65,63a.91.91,0,0,1,.33.61.89.89,0,0,1-.19.67l-2.12,2.65a.89.89,0,0,1-.61.33.86.86,0,0,1-.66-.19l-3.31-2.64a.91.91,0,0,1-.33-.61.89.89,0,0,1,.19-.67ZM249.51,46.2a.86.86,0,0,1,.6-.33.84.84,0,0,1,.67.19l3.31,2.64a.89.89,0,0,1,.33.61.91.91,0,0,1-.19.66l-9,11.31a.91.91,0,0,1-1.27.14l-3.31-2.64a.91.91,0,0,1-.33-.61.89.89,0,0,1,.19-.67Z" style="fill: rgb(241, 174, 0); transform-origin: 245.089px 56.5639px;" id="elgfvazpba3c4" class="animable"></path><g id="elawhor014iiv"><g style="opacity: 0.5; transform-origin: 245.089px 56.5639px;" class="animable"><path d="M238.07,60.49a.89.89,0,0,1,.61-.33.86.86,0,0,1,.66.19L242.65,63a.91.91,0,0,1,.33.61.89.89,0,0,1-.19.67l-2.12,2.65a.89.89,0,0,1-.61.33.86.86,0,0,1-.66-.19l-3.31-2.64a.91.91,0,0,1-.33-.61.89.89,0,0,1,.19-.67ZM249.51,46.2a.86.86,0,0,1,.6-.33.84.84,0,0,1,.67.19l3.31,2.64a.89.89,0,0,1,.33.61.91.91,0,0,1-.19.66l-9,11.31a.91.91,0,0,1-1.27.14l-3.31-2.64a.91.91,0,0,1-.33-.61.89.89,0,0,1,.19-.67Z" style="fill: rgb(255, 255, 255); transform-origin: 245.089px 56.5639px;" id="ell9tmk7cyjzq" class="animable"></path></g></g><path d="M244.21,71.25a.93.93,0,0,1,1.26.24L247.84,75a.86.86,0,0,1,.13.68.85.85,0,0,1-.37.58l-2.82,1.9a.85.85,0,0,1-.68.13.83.83,0,0,1-.57-.37l-2.37-3.51a.86.86,0,0,1-.14-.68.9.9,0,0,1,.38-.58ZM259.39,61a.93.93,0,0,1,1.26.24L263,64.76a.86.86,0,0,1,.14.68.9.9,0,0,1-.38.58l-12,8.1a.93.93,0,0,1-1.26-.24l-2.37-3.51a.9.9,0,0,1-.13-.68.86.86,0,0,1,.38-.58Z" style="fill: rgb(241, 174, 0); transform-origin: 252.08px 69.582px;" id="el9qgee8yx64p" class="animable"></path><g id="eld390r33rr66"><g style="opacity: 0.2; transform-origin: 252.08px 69.582px;" class="animable"><path d="M244.21,71.25a.93.93,0,0,1,1.26.24L247.84,75a.86.86,0,0,1,.13.68.85.85,0,0,1-.37.58l-2.82,1.9a.85.85,0,0,1-.68.13.83.83,0,0,1-.57-.37l-2.37-3.51a.86.86,0,0,1-.14-.68.9.9,0,0,1,.38-.58ZM259.39,61a.93.93,0,0,1,1.26.24L263,64.76a.86.86,0,0,1,.14.68.9.9,0,0,1-.38.58l-12,8.1a.93.93,0,0,1-1.26-.24l-2.37-3.51a.9.9,0,0,1-.13-.68.86.86,0,0,1,.38-.58Z" style="fill: rgb(255, 255, 255); transform-origin: 252.08px 69.582px;" id="elus99iubt9n" class="animable"></path></g></g></g></g><g id="freepik--character-3--inject-141" class="animable" style="transform-origin: 326.148px 196.257px;"><g id="freepik--Character--inject-141" class="animable" style="transform-origin: 326.148px 196.257px;"><g id="freepik--Bottom--inject-141" class="animable" style="transform-origin: 329.083px 267.394px;"><path d="M290,288a4,4,0,0,0-1.83,3,19.29,19.29,0,0,0,1.68,5,16.43,16.43,0,0,1,1.74,8.86c-.3,3.17.65,9.25,3.58,11.87a11.78,11.78,0,0,0,11.3,2.29c3.37-1.18,4.26-2.93,4-5.68Z" style="fill: rgb(55, 71, 79); transform-origin: 299.341px 303.793px;" id="elbup1vn216em" class="animable"></path><path d="M295.23,314.16a6.38,6.38,0,0,1-1.13-1.7,12.7,12.7,0,0,1-1.36-5.36,35.85,35.85,0,0,0,.08-6,25.69,25.69,0,0,0-1.46-6,21.87,21.87,0,0,1-1.65-4.83c-.59-5.07,4.07-7,6.37-8.83l5.65-11.73,9.7,11s-4,4.52-5,6.08c-1.37,2.06-1.87,5.52-2.12,7.93-.32,3.07-.94,6.41.46,9.28a25.25,25.25,0,0,0,2.91,4.26,4.74,4.74,0,0,1,.77,1.25c.48,1.27-.12,2.68-.71,3.9-1,2-2.18,4.16-4.26,4.54a6.2,6.2,0,0,1-3.5-.7A13.24,13.24,0,0,1,295.23,314.16Z" style="fill: rgb(242, 143, 143); transform-origin: 300.544px 293.844px;" id="elj2az75duqw" class="animable"></path><path d="M306.72,306c-.66-1.33-2.4-4.95-2.31-7.06a48.16,48.16,0,0,1,.87-7.84c.44-1.36,1.1-2.06.67-2.21a33.93,33.93,0,0,0-7.92,2.16c-1.73.89-1.41,2.11-1.92,3.41a9.69,9.69,0,0,0-.57-4.79c-.72-1.46-2.08-5.69-.06-7.59l.62-.67s-.23-.63-1.09.13-3.81,3.28-4.63,4.62a6,6,0,0,0-.79,5.78c1,2.83,1.75,3.47,2.35,6.45a28.37,28.37,0,0,1,.6,8.1,13,13,0,0,0,2.66,8.34Z" style="fill: rgb(69, 90, 100); transform-origin: 297.95px 297.997px;" id="el7fe317vangc" class="animable"></path><path d="M345.12,197.43s1.61,20-2.77,40.27c-3.25,15.05-6.8,18.56-8.62,20.66-8.12,9.33-24.54,25.06-24.54,25.06s-9.05-1-10.36-8.38c5.69-12.86,10.62-25.53,16.37-31.75l-8.9-42.43Z" style="fill: rgb(55, 71, 79); transform-origin: 322.12px 240.425px;" id="eld3pswoti21l" class="animable"></path><path d="M303.64,318c2.12-.21,6.53-.91,6.75-4.51.17-2.93-2.81-6.39-3.67-7.47-.35-.26-3.54-.53-7.69,1.35s-5.06,3.56-4.84,5.95A9.79,9.79,0,0,0,303.64,318Z" style="fill: rgb(240, 240, 240); transform-origin: 302.278px 311.947px;" id="eleozaygpvnoh" class="animable"></path><path d="M350.31,310.91c-1.07.06-.84-1.46-1.5-4.88s-2.72-18.2-2.72-18.2l-16.64,6.27s4.27,12.33,5.61,15.89c1.5,3.95,3.59,9.38,3.9,12.44s.35,11.6,4,13.19,7.05-.1,9.49-1.72,5.32-7.37,8-10.26,5-4.48,7.1-7.47,2.06-10.5-.71-12.1-6.77.11-9.12,1.55S352.3,310.8,350.31,310.91Z" style="fill: rgb(242, 143, 143); transform-origin: 349.241px 312.044px;" id="eleht0snagcku" class="animable"></path><path d="M298.67,201.19c-.6,5.67.54,16.58,5.51,26.69s6.17,12,17.2,34.87c-.05,5.11,0,10.2,3.41,19.83,4.25,12,8.92,24.86,8.92,24.86a14.58,14.58,0,0,1,14.52-6.17c-.44-5.88-3.39-33.86-4.9-42.15-1.89-10.31-9.28-45.6-9.28-45.6a20.93,20.93,0,0,0,11.07-16.09Z" style="fill: rgb(69, 90, 100); transform-origin: 323.377px 252.435px;" id="elabaslebdm45" class="animable"></path><path d="M340.19,333.2a35.77,35.77,0,0,1-1.52-9.21c-.31-4.49-1.07-5.86-1.07-5.86s.48-3,4.89-6.52,7.13-1.82,7.13-1.82,1,1.83,3.78-1.45l5,6.94Z" style="fill: rgb(69, 90, 100); transform-origin: 348px 320.77px;" id="elq5enlllimfp" class="animable"></path><path d="M367.27,303.7c-1.61-1.65-4.21-1.67-7.68.08a20.47,20.47,0,0,0-6.19,4.56s-1.87,3.44.85,5.83S367.27,303.7,367.27,303.7Z" style="fill: rgb(240, 240, 240); transform-origin: 360.022px 308.466px;" id="el9nx03m8f1v" class="animable"></path><path d="M369.71,306.88a3.76,3.76,0,0,0-1.28-2.47c-.23-.16-1-.6-1.16-.71-2-1.41-5.69,1.5-8.8,4.36-3.62,3.34-7,10.1-10,14.67s-6.57,6.29-7.78,8.31a3.48,3.48,0,0,0,.28,4.13c.19.22.85.89,1,1a5,5,0,0,0,4.59,1c4-.74,6.91-2,10.29-6.92s5.17-7.42,9.08-10.53S370.48,310.87,369.71,306.88Z" style="fill: rgb(55, 71, 79); transform-origin: 355.068px 320.345px;" id="elh0lxrseat4r" class="animable"></path><path d="M369.71,306.88c-1.08-5.59-6.06-1.8-10.07,1.9-3.62,3.34-7,10.1-10,14.67s-6.65,6.24-7.78,8.31c-2,3.76.69,6.19,4.7,5.45s6.91-2,10.29-6.92,5.17-7.42,9.08-10.53S370.48,310.87,369.71,306.88Z" style="fill: rgb(38, 50, 56); transform-origin: 355.589px 320.695px;" id="elbz2idzn99t" class="animable"></path><path d="M351.3,310.12h0c-1.22.54-1.68-.33-1.68-.33-3.86,4-4.31,6.56-4.31,6.56S349.08,311.64,351.3,310.12Z" style="fill: rgb(55, 71, 79); transform-origin: 348.305px 313.07px;" id="elgphpae17kpm" class="animable"></path><path d="M329.46,214.89a167.25,167.25,0,0,1,6.31,19.74c1.74,6.7,3.37,13.44,4.46,20.32s1.89,13.73,2.75,20.61,1.65,13.77,2.35,20.66q-1.86-10.22-3.44-20.48c-1.07-6.84-2.07-13.69-3-20.54-.48-3.42-1.21-6.78-1.91-10.17s-1.46-6.74-2.23-10.11-1.59-6.72-2.45-10.06S330.49,218.19,329.46,214.89Z" style="fill: rgb(55, 71, 79); transform-origin: 337.395px 255.555px;" id="elxjn90dxg12o" class="animable"></path></g><g id="freepik--Top--inject-141" class="animable" style="transform-origin: 326.148px 167.616px;"><g id="freepik--Arm--inject-141" class="animable" style="transform-origin: 353.292px 127.106px;"><path d="M397.88,160.81l-3.65-.22-4.1-.19-2.1-.08a1.64,1.64,0,0,1-.73-.09,2,2,0,0,1-.38-.46l-4.4,0a16.45,16.45,0,0,0-1.9,4.09,8.41,8.41,0,0,1-.54,1.27,9,9,0,0,1-3.72,3.58c-2.47,1.43-12.65,7.15-12.65,7.15s-1.19-2-5.9-12.45C354.46,156,349.57,146,342.51,146c0,0-.57,12.28-.86,21,3.74,6.53,9.72,17.1,12.77,21.06,3.57,4.64,6.11,6.43,9.91,4.52,6.67-3.35,12.42-9.75,16.53-13.37,1.4-1.26,2.9-2.56,4.24-3.86s3.29-1.62,5-2a12.83,12.83,0,0,0,3.3-1,3.58,3.58,0,0,0,1.92-3.63.72.72,0,0,1,0-.29c0-.13.17-.2.28-.28a1.79,1.79,0,0,0,.6-2.09,2.09,2.09,0,0,0,1.91-1.95c1.94-.1,3.87-.25,5.81-.45a2.52,2.52,0,0,0,1.81-.69.88.88,0,0,0,.21-.58c0-.54-.62-.84-1.14-1a15.48,15.48,0,0,0-2.34-.32Z" style="fill: rgb(255, 168, 167); transform-origin: 373.795px 169.667px;" id="el7hqat38y78p" class="animable"></path><path d="M373.65,170.05,377,168a9.43,9.43,0,0,0,1.13,5.95,10,10,0,0,0,4.19,4.3l-2.66,2.39S373.18,178.16,373.65,170.05Z" style="fill: rgb(250, 250, 250); transform-origin: 377.973px 174.32px;" id="el5o92y9c1zkq" class="animable"></path><path d="M342.53,145.72c5.23,1,7,1.95,10.08,7s11.29,22.32,11.29,22.32l11.13-6a11.16,11.16,0,0,0,1.14,7.48c2.08,3.37,4.26,3.78,4.26,3.78s-10,10.51-15.64,12.62-7.43-.36-10-3.62-13.14-19.61-13.14-19.61Z" style="fill: rgb(55, 71, 79); transform-origin: 361.04px 169.712px;" id="elz6nn36x20z" class="animable"></path><path d="M388.2,165.09a8,8,0,0,0,.24-1.38,3,3,0,0,0-.05-1.3c-.05-.14-.29-.31-.37-.1a6.5,6.5,0,0,0-.21,1.26c-.06.39-.14.79-.24,1.18a8.58,8.58,0,0,1-1,2.22,6.86,6.86,0,0,1-1.54,1.73,14.47,14.47,0,0,1-1.84,1.14c-.05,0-.08.21,0,.21a5.52,5.52,0,0,0,3.89-2.61A7.68,7.68,0,0,0,388.2,165.09Z" style="fill: rgb(242, 143, 143); transform-origin: 385.815px 166.131px;" id="elbcezhukx41a" class="animable"></path><path d="M407.13,197.88,341.08,57l-1.84.9L405.3,198.79C405.67,199.52,407.48,198.59,407.13,197.88Z" style="fill: rgb(69, 90, 100); transform-origin: 373.207px 128.028px;" id="elxhjr1dqeeb8" class="animable"></path><path d="M340.27,59.59a11.51,11.51,0,0,0-7.59,1.12c-3.42,1.56-5.57,5-8.15,7.79a27.08,27.08,0,0,1-25.12,8A15.36,15.36,0,0,0,307,81.3a44.77,44.77,0,0,0,8.93,1.48,31.71,31.71,0,0,1-15.62,2.45,23.44,23.44,0,0,0,6.55,3.85c4.95,2.23,9.82,3.86,15.32,3.36a21.52,21.52,0,0,0,13.7-6.61c1.73-1.85,3.13-4,4.84-5.87a12.91,12.91,0,0,1,7-4Z" style="fill: rgb(241, 174, 0); transform-origin: 323.565px 75.9532px;" id="elc4flxg86ygv" class="animable"></path><path d="M338.4,58.85a2.21,2.21,0,0,0,3.14.42,2.34,2.34,0,0,0,.41-3.22,2.22,2.22,0,0,0-3.15-.42A2.33,2.33,0,0,0,338.4,58.85Z" style="fill: rgb(55, 71, 79); transform-origin: 340.171px 57.4496px;" id="elpo32dfc6dh" class="animable"></path><path d="M363.9,175.06c-3.54,2-5.21,6.41-5.21,6.41a7.72,7.72,0,0,1,1.57-4.85,18.58,18.58,0,0,1,2.92-3.05Z" style="fill: rgb(38, 50, 56); transform-origin: 361.294px 177.52px;" id="el6wv2j7zqhhi" class="animable"></path><path d="M386.92,159.77a1.84,1.84,0,0,1,.11-1,10.08,10.08,0,0,0,.34-3.23,3.23,3.23,0,0,0-.29-1.27c-.23-.47-.91-1.07-1.46-.72s-.72,1.45-.93,1.93a38.33,38.33,0,0,1-2.17,4.35" style="fill: rgb(255, 168, 167); transform-origin: 384.953px 156.638px;" id="elytajntcusqm" class="animable"></path></g><g id="freepik--Chest--inject-141" class="animable" style="transform-origin: 323.228px 158.952px;"><path d="M340.17,126.92l3.21,12.55a6.49,6.49,0,0,1-3.91,1.08l.53,9.27s-4.58.81-7.3-1.71l4.37-21.93Z" style="fill: rgb(241, 174, 0); transform-origin: 338.04px 138.062px;" id="eliobrm03id9" class="animable"></path><g id="elasvao5mxmk8"><path d="M339.47,140.55a4.06,4.06,0,0,1-2.11-.52l.07-11.83-.93,12.42a6.06,6.06,0,0,0,3,.9Z" style="opacity: 0.1; transform-origin: 338px 134.86px;" class="animable"></path></g><path d="M347.83,165.16c.58-14.28-3.31-18.29-5.73-19.49l-12.05-3.11c-3.12.13-15.11,3.15-18.81,3.8-2.37.41-4.12,5-5.81,12.44a143,143,0,0,0-3,20.46c-.68,7.7-1.33,12.14-3.85,23.06,15.68,6,32.78,10.69,45.31,2.38-.14-2,2.22-18.62,2.66-23.54S347.67,169,347.83,165.16Z" style="fill: rgb(250, 250, 250); transform-origin: 323.234px 175.872px;" id="el8m9u4kg3sal" class="animable"></path><g id="freepik--Head--inject-141" class="animable" style="transform-origin: 327.386px 130.097px;"><path d="M334.53,139c1-3.36,4.89-6.51,6.82-9.31s3-4.82,3.2-7.56c.11-1.62-.63-3.93-1.76-4.54a7.53,7.53,0,0,0-4.3-10,24.47,24.47,0,0,1-3.17-1.34c-1.23-.71-1.39-1.79-2.32-2.81-1.6-1.75-4.62-2.17-6.07,0-1-1.7-2.63-1.87-4.57-1.63a3.22,3.22,0,0,0-2.91,3.3,3.39,3.39,0,0,0-5.27,1.2c-.31,1.06-.2,2-1,2.89s-2.46.78-2.8-.16c-.46,1.51,0,2.77,1.68,2.89a3.54,3.54,0,0,0-.82,2.9,3.22,3.22,0,0,0,2.62,2.57,5.39,5.39,0,0,0,.44,2.45,5.6,5.6,0,0,0,1.74,2c2.38,1.54,5.14,2.29,7.8,3.2l3.15,1.09c.19.06,1.16.25,1.25.43Z" style="fill: rgb(38, 50, 56); transform-origin: 327.386px 120.362px;" id="elk31ziclzzzb" class="animable"></path><path d="M339.26,135.07c-2.6,1.13-3.45-1.66-3.45-1.66l-1.28,9.28c0,.47-.48,4.41-.48,4.41s1.76,2.92.58,11.37c-1.64-1.81-4.78-3.26-14.72-12.55l.41-5.37a34.14,34.14,0,0,1-4.06-.71,7.18,7.18,0,0,1-5.05-6.15A31.25,31.25,0,0,1,312.34,122a10,10,0,0,0,.51-2.81,13.33,13.33,0,0,1,1.62-6c3.27-2,11.71-1.43,17.61,3.27-1.79,3.08-1.35,6.51,1.23,8.31-.26,1-.72,3.59,1,3.76,1.22.12,1.5-1.4,2.92-2.58s4.38-1.17,5.26,1A6.64,6.64,0,0,1,339.26,135.07Z" style="fill: rgb(255, 168, 167); transform-origin: 326.973px 135.286px;" id="eluzu7c9y371" class="animable"></path><path d="M320.32,140.55c4.34,0,7.64,0,10.26-2.82A26.75,26.75,0,0,0,333.8,133a21.1,21.1,0,0,1-2.64,6.12c-1.33,1.83-4.18,3.14-11,2.86Z" style="fill: rgb(242, 143, 143); transform-origin: 326.98px 137.509px;" id="elzy223fmho8o" class="animable"></path><path d="M314.06,119.11l2.95-.42a1.44,1.44,0,0,0-1.63-1.29A1.56,1.56,0,0,0,314.06,119.11Z" style="fill: rgb(38, 50, 56); transform-origin: 315.531px 118.248px;" id="el0d9hm3kxkxb9" class="animable"></path><path d="M314.35,122.53a1.21,1.21,0,1,0,1.35-1.12A1.25,1.25,0,0,0,314.35,122.53Z" style="fill: rgb(38, 50, 56); transform-origin: 315.557px 122.614px;" id="elx29mv5f1p4l" class="animable"></path><path d="M323.66,123.83a1.21,1.21,0,1,0,1.35-1.12A1.24,1.24,0,0,0,323.66,123.83Z" style="fill: rgb(38, 50, 56); transform-origin: 324.867px 123.913px;" id="elnfmsf9s3f1" class="animable"></path><path d="M315.1,127.17l3.95,2.4,2.34-8C319.9,120.77,317.42,124.29,315.1,127.17Z" style="fill: rgb(242, 143, 143); transform-origin: 318.245px 125.512px;" id="elcgvvkcd3zqf" class="animable"></path><path d="M325.19,118.93l2.42,1.76a1.58,1.58,0,0,0-.35-2.16A1.46,1.46,0,0,0,325.19,118.93Z" style="fill: rgb(38, 50, 56); transform-origin: 326.54px 119.476px;" id="eljy7cpk781g" class="animable"></path><path d="M323.54,132l-5.16.43a2.53,2.53,0,0,0,2.73,2.44A2.71,2.71,0,0,0,323.54,132Z" style="fill: rgb(177, 102, 104); transform-origin: 320.963px 133.439px;" id="elo8grehgonm" class="animable"></path><path d="M322.83,132.69a2.58,2.58,0,0,1,.62.09,2.67,2.67,0,0,1-2.34,2,2.3,2.3,0,0,1-.83-.08A2.37,2.37,0,0,1,322.83,132.69Z" style="fill: rgb(242, 143, 143); transform-origin: 321.865px 133.735px;" id="ely8sirrxj4d" class="animable"></path><path d="M312.84,119.47c3.12-2,6.29,1,7.9,1.22,1.93.27,2.2-.74,7.1,0,2.46.37,10.14,4.79,10.14,4.79a8.19,8.19,0,0,0-2.35,2.3c-5.21.72-8.77,1.45-11.75.35-3.46-1.28-4.35-3.18-6.87-3.36l-1.07,1.35a7.5,7.5,0,0,1-4.29-1.53S311.79,121.22,312.84,119.47Z" style="fill: rgb(241, 174, 0); transform-origin: 324.815px 123.739px;" id="ellq1hoptxlu" class="animable"></path><g id="eli44hm0b1yhl"><path d="M334.48,126.73c-1.18,0-2.35,0-3.52.13-.08,0-.1.2,0,.2,1.21,0,2.41,0,3.62,0,.54,0,1.09,0,1.63.07l.31-.34h-.3Zm2.09-.76a16.12,16.12,0,0,0-2.34-.7c-.09,0-.1.18,0,.21.77.28,1.53.57,2.29.88l.28.12.3-.3Zm-20.63.15,1.07-1.35a19.15,19.15,0,0,1,2.87-3c-1.39.44-4.23,3.21-5.17,4.16A5.39,5.39,0,0,0,315.94,126.12Z" style="opacity: 0.1; transform-origin: 325.905px 124.45px;" class="animable"></path></g></g><g id="freepik--Neck--inject-141" class="animable" style="transform-origin: 328.655px 150.785px;"><path d="M335.24,159.61c.62-2.83,2.32-3.69,3.24-3.7a4.24,4.24,0,0,1,3.43,1.45,26,26,0,0,0-3.69-9.93c-2.78-4.17-3.69-4.74-3.69-4.74l-.48,4.41a14.76,14.76,0,0,1,.85,4.61,52,52,0,0,1-.24,6.9A1.67,1.67,0,0,1,335.24,159.61Z" style="fill: rgb(224, 224, 224); transform-origin: 337.98px 151.15px;" id="el5y9xunvbo1y" class="animable"></path><path d="M320.27,141.24c-1.29.36-1.17,1.92-4.87,3.42A22.75,22.75,0,0,0,326,160.33a9.35,9.35,0,0,1,4.46-2.71c2.7-.69,4.72,1.84,4.72,1.84a4.71,4.71,0,0,0-1.15-2c-4-4-6.53-6.4-8.7-8.2-5.74-4.75-5.16-7.07-5.16-7.07Z" style="fill: rgb(224, 224, 224); transform-origin: 325.29px 150.785px;" id="el3goidzrzqq6" class="animable"></path></g><path d="M308.39,145.5a37.79,37.79,0,0,0,7-1.21A11.67,11.67,0,0,0,319,142.2a10.75,10.75,0,0,0-.1,3.74c.27,2.34,1.41,4.69,2.24,7.51,1.95,6.6,4,13.42,3,27.33-.73,10.8-2.64,27.52-3.63,35.4-4.81-.11-20.89-4.57-23.43-6.77.59-12,2.77-15.06,3.67-28.77C301.54,169.6,302.55,147.72,308.39,145.5Z" style="fill: rgb(38, 50, 56); transform-origin: 310.741px 179.19px;" id="elq1v9m96s7r" class="animable"></path><path d="M315.32,146.49c-.1,2.92-.21,5.84-.36,8.75l-.22,4.38-.25,4.37-.1-.23c1.59,1.39,3.2,2.76,4.78,4.16l.18.16-.12.21-3.51,6.4,0-.21c.69,2.27,1.33,4.54,2,6.81s1.3,4.55,1.93,6.83c-.78-2.23-1.53-4.48-2.27-6.72s-1.48-4.5-2.19-6.76l0-.1.05-.1L318.7,168l.06.38c-1.59-1.39-3.16-2.8-4.75-4.19l-.1-.1V164l.3-4.37.34-4.36C314.78,152.31,315,149.4,315.32,146.49Z" style="fill: rgb(55, 71, 79); transform-origin: 316.78px 167.305px;" id="elpzfaygepd6g" class="animable"></path><path d="M336,144.43c2.07,3.43,6.45,11.19,6.66,20.57.16,6.81-.3,13.41-.64,19.68-.94,17-1.73,29.3-1.73,29.3a11.57,11.57,0,0,0,6.38-3.14c0-11,1.33-25.88,1.58-30.13s.91-12.29,1.11-17.49-1.49-13.43-5.58-17.25c-4.25-1.2-8.67-2.71-8.67-2.71Z" style="fill: rgb(38, 50, 56); transform-origin: 342.243px 178.62px;" id="elzda6zme4obo" class="animable"></path><path d="M339.82,145.24a32.62,32.62,0,0,1,2.61,4.2,46.7,46.7,0,0,1,2.07,4.49,48.25,48.25,0,0,1,1.56,4.67,46.81,46.81,0,0,1,1.07,4.69L344.45,167l-.1.15.08.16,2.8,5.58-1.19,3.9-1.2,4c-.81,2.68-1.57,5.36-2.33,8.06.92-2.65,1.82-5.29,2.69-7.95l1.31-4,1.28-4,0-.1-.05-.11-2.72-5.54,2.62-3.71.07-.11,0-.11c-.32-1.63-.67-3.26-1.15-4.86a40.8,40.8,0,0,0-1.69-4.68,38.58,38.58,0,0,0-2.24-4.45A28,28,0,0,0,339.82,145.24Z" style="fill: rgb(55, 71, 79); transform-origin: 343.805px 167.045px;" id="elea9mckrnjth" class="animable"></path></g><g id="freepik--arm--inject-141" class="animable" style="transform-origin: 278.044px 212.788px;"><g id="freepik--Briefcase--inject-141" class="animable" style="transform-origin: 271.237px 244.363px;"><path d="M297.3,243.62,289.48,276c-.38,1.57-1.71,2.21-3.26,2.68l-3.88,1.15a3.37,3.37,0,0,1-2.79-.12,7.56,7.56,0,0,1-1.63-1.18l-.07-.06-.15-.15-29.95-28.49a8.45,8.45,0,0,1-2.39-8.11l7.12-29.48a2.41,2.41,0,0,1,1.5-1.58l6.62-1.94a2.37,2.37,0,0,1,2.11.5l34,32.33a2.08,2.08,0,0,1,.56,1A2.23,2.23,0,0,1,297.3,243.62Z" style="fill: rgb(55, 71, 79); transform-origin: 271.237px 244.363px;" id="el0qy9bf6lpfo" class="animable"></path><path d="M297.3,243.62,289.48,276c-.38,1.57-1.71,2.21-3.26,2.68l-3.88,1.15a3.37,3.37,0,0,1-2.79-.12,7.56,7.56,0,0,1-1.63-1.18v0c1.2,1,2.44.52,2.83-1.09l7.37-30.5a3.38,3.38,0,0,0-.09-1.69l9.21-2.71A2.23,2.23,0,0,1,297.3,243.62Z" style="fill: rgb(38, 50, 56); transform-origin: 287.63px 261.308px;" id="el6i0hixljj4e" class="animable"></path><path d="M288.12,246.91a3.64,3.64,0,0,0-.93-3.15L255.08,213.2c-1.27-1.2-2.64-.8-3.05.9l-6.67,27.6a8.44,8.44,0,0,0,2.39,8.11l29.95,28.5c1.26,1.21,2.64.81,3.05-.9Z" style="fill: rgb(69, 90, 100); transform-origin: 266.651px 245.759px;" id="eloeziceo5l5t" class="animable"></path><path d="M258.45,209.34l34,32.6a3.82,3.82,0,0,1,1.06,3.64l-8,33.32-.69.21,8.13-33.67a3.18,3.18,0,0,0-.89-3.05l-34.23-32.85Z" style="fill: rgb(241, 174, 0); transform-origin: 275.723px 244.225px;" id="elzhpirhd09z" class="animable"></path><g id="elh9nxqlmigqd"><path d="M293.45,243.62a3.83,3.83,0,0,1,0,2l-8,33.32-.69.21,8.13-33.67a3.14,3.14,0,0,0,0-1.64Z" style="opacity: 0.2; transform-origin: 289.171px 261.385px;" class="animable"></path></g><g id="el6zd5rrfzbyv"><path d="M292.85,243.8a3.12,3.12,0,0,0-.85-1.41l-34.23-32.85.68-.2,34,32.6a3.86,3.86,0,0,1,1,1.68" style="opacity: 0.2; transform-origin: 275.61px 226.57px;" class="animable"></path></g><path d="M271.5,216.87l-1.21,5-2.23.66,1.61-6.66c.08-.34.35-.42.61-.18Z" style="fill: rgb(241, 174, 0); transform-origin: 269.78px 219.041px;" id="elql92u2ijja" class="animable"></path><g id="el3u7fxtjmxzn"><path d="M271.5,216.87l-1.21,5-2.23.66,1.61-6.66c.08-.34.35-.42.61-.18Z" style="opacity: 0.4; transform-origin: 269.78px 219.041px;" class="animable"></path></g><path d="M284.08,225.15l-2,8.11-2.13.64-1.08-1,1.6-6.66a1.19,1.19,0,0,0-.31-1.06L272,217.32l-1.7-1.62c-.26-.24-.53-.16-.61.18l-1.61,6.66-1.09-1,2-8.11,0-.1a1.26,1.26,0,0,1,.73-.7l.91-.27a1.24,1.24,0,0,1,1.08.26l12.09,11.51A1.19,1.19,0,0,1,284.08,225.15Z" style="fill: rgb(241, 174, 0); transform-origin: 275.546px 223.114px;" id="el614wpcspnv" class="animable"></path><g id="els8pkjrsnpmb"><path d="M282,225.78l-2,8.12-1.08-1,1.6-6.66a1.19,1.19,0,0,0-.31-1.06L272,217.32l-1.7-1.62c-.26-.24-.53-.16-.61.18l-1.61,6.66-1.09-1,2-8.11,0-.1c.11-.25.36-.29.58-.08l12.1,11.51A1.24,1.24,0,0,1,282,225.78Z" style="opacity: 0.2; transform-origin: 274.501px 223.507px;" class="animable"></path></g></g><path d="M277,217.68l5.15,4.9a5.43,5.43,0,0,0,0-2.88c-.44-.84-2.4-4.35-3.34-4.33C278.37,215.37,277.64,216.4,277,217.68Z" style="fill: rgb(242, 143, 143); transform-origin: 279.672px 218.975px;" id="elphcaz0etmv" class="animable"></path><path d="M276,221.17a3.91,3.91,0,0,0,0,.61,9.68,9.68,0,0,0,1.69,3.77A4.2,4.2,0,0,0,280,225Z" style="fill: rgb(242, 143, 143); transform-origin: 277.994px 223.363px;" id="elgtewcx053rr" class="animable"></path><path d="M308.35,145.74c-5,.64-9.16,3.08-13.55,9.6s-9.69,14.23-13,21.39-8.88,22.5-10.57,27.26a44.53,44.53,0,0,0-1.89,5.83,49.76,49.76,0,0,0-.87,6.9,3.22,3.22,0,0,0,1.11,2.88,4.45,4.45,0,0,1,.69.52c.37.41.41,1,.68,1.5a2.52,2.52,0,0,0,1.47,1.12,7.69,7.69,0,0,1,.81.27c1,.44,1.43,1.54,2.29,2.14a3,3,0,0,0,2.19.7,6.18,6.18,0,0,0,1.24-.34c.22-.08.85-.42,1.05-.52a3.22,3.22,0,0,1-2.24-2.86A10.17,10.17,0,0,1,278,218a2.08,2.08,0,0,1,.41-.89.41.41,0,0,1,.42-.19c.17,0,.24.25.29.43a9.82,9.82,0,0,0,1.32,3.43,2.2,2.2,0,0,0,1.16,1,1,1,0,0,0,1.24-.61,1.57,1.57,0,0,0,0-.61,27.46,27.46,0,0,1-.29-4.88,17.57,17.57,0,0,0-.25-4.52c-.35-1.56-1.56-3.89-.92-5.39,1.09-2.52,11.94-21.54,11.94-21.54s11.1-16.17,13.89-20.49C310.59,158.31,311.59,150.4,308.35,145.74Z" style="fill: rgb(255, 168, 167); transform-origin: 289.384px 185.8px;" id="elo36t2so5olk" class="animable"></path><path d="M284.15,200.59l-1.75,3.54a7.14,7.14,0,0,1-5.23-1.29c-2.84-1.88-3.84-3.61-4.05-4.91l1.4-3.58Z" style="fill: rgb(250, 250, 250); transform-origin: 278.635px 199.277px;" id="el9t0rc9ol1p" class="animable"></path><path d="M308.39,145.5c-6.54.58-8.25,1.64-11.76,6.41-3.13,4.27-10.84,16.23-13.17,20.61-4.18,7.84-9.83,23.5-9.83,23.5s.16,2.54,4,4.77,5.93,1.45,5.93,1.45l10.64-18.88s12.19-14.69,13.49-16.88C310.35,162.08,313.15,150.38,308.39,145.5Z" style="fill: rgb(55, 71, 79); transform-origin: 292.298px 173.936px;" id="elhjyb22vzvdr" class="animable"></path></g></g></g></g><g id="freepik--character-2--inject-141" class="animable" style="transform-origin: 204.636px 178.066px;"><g id="freepik--character--inject-141" class="animable" style="transform-origin: 204.636px 178.066px;"><g id="freepik--bottom--inject-141" class="animable" style="transform-origin: 206.347px 228.113px;"><path d="M224.93,263.9c-.82-1.35-1.33-3.53-1.36-7s.67-14.61.67-14.61H208.08s3.43,16.93,3.53,18c0,0,0,.4.06.84.27,3.53,4.67,4.91,8.1,7A60.22,60.22,0,0,0,229,273c2.45,1,7.26.73,7.76-.76C232.56,269.63,227.25,267.77,224.93,263.9Z" style="fill: rgb(255, 168, 167); transform-origin: 222.42px 257.942px;" id="el8l9xoik44py" class="animable"></path><path d="M243.77,275.55a2.9,2.9,0,0,1-.37,3.09c-1.2,1.14-4.82,3.12-9.81,2.86s-7.78-1.52-9.87-3-5-3.47-7.3-3.78a14.06,14.06,0,0,1-5.14-1.59c-.71-.57-.81-3.3-.81-3.3Z" style="fill: rgb(38, 50, 56); transform-origin: 227.263px 275.677px;" id="elfmlx0n76esa" class="animable"></path><path d="M211.44,259.28s-.37,0-.45.67-.11,3-.35,4.21a21.11,21.11,0,0,0,0,6.64c.37,1.38,3.83,2.11,6.05,2.74a28.12,28.12,0,0,1,7.32,3.72,21.16,21.16,0,0,0,10.7,3c4.93-.28,8-1.78,8.89-3.53s-.11-3.37-1.61-4.44a25.67,25.67,0,0,0-4.24-2.17q-2.52-1.15-5-2.42a22,22,0,0,1-5.82-3.85,6,6,0,0,1-1.58-3.39,2.32,2.32,0,0,0-.42-1.22c-.71-.78-2.43-.41-3.29-.14a17.54,17.54,0,0,0-4.26,2,2.72,2.72,0,0,0-1,1,3.48,3.48,0,0,0-.26,1.24,11.28,11.28,0,0,1-.28,1.52c0,.14-.11.3-.25.33s-.25-.09-.33-.19c-1.07-1.33-1-3-2.55-4A2.42,2.42,0,0,1,211.44,259.28Z" style="fill: rgb(55, 71, 79); transform-origin: 227.156px 269.516px;" id="elzirrjwc7xxp" class="animable"></path><path d="M238.27,270.33c-7.09,1-9.76,6.29-9.88,8.91a16.6,16.6,0,0,0,6.44,1.17c4.92-.28,8.1-2,9-3.73C244.8,274.63,243.45,271.8,238.27,270.33Z" style="fill: rgb(250, 250, 250); transform-origin: 236.256px 275.371px;" id="el8hrc2oidzff" class="animable"></path><path d="M229.15,271.58a.46.46,0,0,1-.23-.06.34.34,0,0,1-.08-.47,8.61,8.61,0,0,1,6.27-2.87.34.34,0,0,1,.34.34.35.35,0,0,1-.37.32,8,8,0,0,0-5.67,2.6A.38.38,0,0,1,229.15,271.58Z" style="fill: rgb(240, 240, 240); transform-origin: 232.114px 269.88px;" id="elz9wvihnethh" class="animable"></path><path d="M226,270.09a.33.33,0,0,1-.31-.52,8.58,8.58,0,0,1,6.27-2.88.33.33,0,0,1,.33.34.34.34,0,0,1-.36.33,8,8,0,0,0-5.67,2.59A.38.38,0,0,1,226,270.09Z" style="fill: rgb(240, 240, 240); transform-origin: 228.959px 268.391px;" id="elrgyel7n9t4" class="animable"></path><path d="M223,268.35a.46.46,0,0,1-.23-.06.33.33,0,0,1-.08-.47,8.63,8.63,0,0,1,6.27-2.87.33.33,0,0,1,.33.34.34.34,0,0,1-.36.32,8,8,0,0,0-5.67,2.59A.37.37,0,0,1,223,268.35Z" style="fill: rgb(240, 240, 240); transform-origin: 225.958px 266.65px;" id="el1uqe6q9a6nyh" class="animable"></path><path d="M220.05,266.6a.46.46,0,0,1-.22-.06.32.32,0,0,1-.09-.46c1.25-1.74,4.25-3,6.86-2.95a.33.33,0,0,1,.33.34.34.34,0,0,1-.36.32c-2.34-.07-5.15,1.12-6.26,2.66A.35.35,0,0,1,220.05,266.6Z" style="fill: rgb(240, 240, 240); transform-origin: 223.305px 264.864px;" id="elkyrr53e5tth" class="animable"></path><path d="M173.47,243.49c-.17,9.58.53,15.15-.08,22.71-.14,1.77-1.58,13.65-1.25,17.33.5,5.53,8.33,5.44,9.08,2.23s2.55-17.25,2.74-18.68c.57-5.65,3.66-12.77,6-23.59Z" style="fill: rgb(255, 168, 167); transform-origin: 181.026px 265.731px;" id="el9498e33yzfw" class="animable"></path><path d="M183.68,288.26c-.21,3.21-.77,5.33-2,7.21s-3.66,2.47-6.09,1.92-5.54-2-6.23-4.78a15.7,15.7,0,0,1-.55-7.63Z" style="fill: rgb(38, 50, 56); transform-origin: 176.126px 291.283px;" id="elah0detbmc5i" class="animable"></path><path d="M173.48,265.06c-1,.07-1.3,4.37-1.88,8.68-.61,4.62-2.15,6.53-2.71,10.31-.63,4.33.17,6.26,1.87,8.88s7.68,5.18,10.64,1.43c2.4-3.05,2.5-6.44,2.28-10.76a86.05,86.05,0,0,1,.33-10.94c.19-3.24,1-6.51.12-6.87-.06.48-.13,1.08-.2,1.55a7.33,7.33,0,0,1-.32,1.73c-.1.24-.33.49-.42.1a2.45,2.45,0,0,1,0-.81c.15-1.19-.52-1.29-.88-1.38-.79-.2-3.89-.54-4.64-.59s-3.4-.15-3.75.24a2.46,2.46,0,0,0-.33,1.25c-.09.65-.26,1.13-.28.93,0-.47.06-1.68.07-2s.06-.67.07-.95A7.68,7.68,0,0,1,173.48,265.06Z" style="fill: rgb(55, 71, 79); transform-origin: 176.604px 280.654px;" id="el42lv0mh1rgu" class="animable"></path><path d="M168.62,286.56a9.84,9.84,0,0,0,1.87,6.57c1.69,2.62,8.17,5.19,11.12,1.45a11.45,11.45,0,0,0,2.07-6.32C181.91,285.37,171.41,284.1,168.62,286.56Z" style="fill: rgb(250, 250, 250); transform-origin: 176.135px 290.856px;" id="elhddsf1lhhl" class="animable"></path><path d="M181.49,283.56a.53.53,0,0,1-.12,0,18.82,18.82,0,0,0-9.17-.8.37.37,0,0,1-.44-.25.33.33,0,0,1,.27-.4,19.26,19.26,0,0,1,9.66.85.32.32,0,0,1,.18.44A.39.39,0,0,1,181.49,283.56Z" style="fill: rgb(240, 240, 240); transform-origin: 176.827px 282.704px;" id="el3shg01vaqg5" class="animable"></path><path d="M172.42,279.51a.38.38,0,0,1-.31-.23.32.32,0,0,1,.23-.42c4.48-1.36,9.46.68,9.65.77a.31.31,0,0,1,.15.45.4.4,0,0,1-.5.14s-4.89-2-9.06-.73A.41.41,0,0,1,172.42,279.51Z" style="fill: rgb(240, 240, 240); transform-origin: 177.138px 279.325px;" id="el4qe1iiywlpa" class="animable"></path><path d="M172.58,276.47a.39.39,0,0,1-.31-.22.33.33,0,0,1,.22-.43,14.43,14.43,0,0,1,9.83.75.31.31,0,0,1,.13.45.4.4,0,0,1-.51.12,13.9,13.9,0,0,0-9.2-.69A.41.41,0,0,1,172.58,276.47Z" style="fill: rgb(240, 240, 240); transform-origin: 177.375px 276.237px;" id="el9k7emnvfw7" class="animable"></path><path d="M172.83,273.47a.36.36,0,0,1-.31-.21.33.33,0,0,1,.21-.43c4.62-1.54,9.71.74,9.9.84a.3.3,0,0,1,.13.45.38.38,0,0,1-.5.12s-5-2.22-9.27-.78A.43.43,0,0,1,172.83,273.47Z" style="fill: rgb(235, 235, 235); transform-origin: 177.657px 273.293px;" id="el5a6afu26act" class="animable"></path><path d="M224.91,158.64l-46.85.53s-2.71,46.63-2.8,49.09S174,215,173.09,227.18c-.8,10.57,0,31.88,0,31.88a10.54,10.54,0,0,0,6.36,2.82c4.19.46,6.25-1.28,6.25-1.28s7.76-29.18,9.46-36.47,7.22-35.33,7.22-35.33l3,24s-1,6.67.33,17.3S210,253.94,210,253.94s2.38,1.77,7,1.43c5.15-.37,7-2.49,7-2.49S226.75,219,226.75,207C226.75,198,225.94,176,224.91,158.64Z" style="fill: rgb(69, 90, 100); transform-origin: 199.742px 210.299px;" id="elct5xy25oru4" class="animable"></path><path d="M204.91,172.26l-2.53,16.54,3,24-.45-23.44,2.53-14.77c3-.69,8.6-2.83,9.49-6.84C212.25,172.43,204.91,172.26,204.91,172.26Z" style="fill: rgb(38, 50, 56); transform-origin: 209.665px 190.275px;" id="elajxreodpfeu" class="animable"></path></g><g id="freepik--top--inject-141" class="animable" style="transform-origin: 204.636px 111.104px;"><path d="M214.82,99.66a17.62,17.62,0,0,1,9.29,2.46c3.76,2,23.31,27.29,23.31,27.29a9.74,9.74,0,0,1-6.86,1.38c-4.24-.59-17.14-7.85-17.14-7.85Z" style="fill: rgb(69, 90, 100); transform-origin: 231.12px 115.293px;" id="elrt8d3hf13hm" class="animable"></path><path id="freepik--chest--inject-141" d="M194.56,97.84a58.72,58.72,0,0,0-6.64,1.92L179.59,102l-1.85.59s-2.61,6.8-.91,22.28c.31,2.77,1.51,12.28,1.48,18.06-.05,7.8-.25,16.24-.25,16.24s8.82,5.47,27.83,4.34c14.93-.89,19-4.87,19-4.87s-.81-21.16-.59-32.16c.36-18.32-2.72-23.93-5.89-26.5l-10.17-2.86Z" style="fill: rgb(55, 71, 79); transform-origin: 200.572px 130.392px;" class="animable"></path><g id="freepik--head--inject-141" class="animable" style="transform-origin: 201.297px 83.1423px;"><path d="M186.62,69.29a5.67,5.67,0,0,1,3-2.82c.66-3.62,5.35-6.26,8.26-7.25,4-1.35,8-.5,11.82,1a8.69,8.69,0,0,0,4.2.78c.63-.09,1.34-.41,1.43-1a2.05,2.05,0,0,1,.91,1.33,5.39,5.39,0,0,1-.32,3.79,2,2,0,0,1,1.32,1,5.4,5.4,0,0,1,.41,5c-1.46,3.4-5.12,3.49-8.19,4.51l-9.11,3-7.65,2.54.18,4L193,91a3.74,3.74,0,0,1-2.15-1.74,32.31,32.31,0,0,1-3.12-8.09C185.73,73.61,185.86,70.73,186.62,69.29Z" style="fill: rgb(38, 50, 56); transform-origin: 202.093px 74.7723px;" id="el4dmibhsp9wc" class="animable"></path><path d="M187.57,86.24c3,1.48,4.38-.88,4.38-.88l.35,11.93c-.38,3.68,8.89,4.91,12.83,10.45,2.48-5.13,3-7.39,2-9.68V93.84a18.2,18.2,0,0,0,2.6-.23c2.65-.39,4.9-2.22,5.7-5.78,1-4.31.68-12.54-.5-18.2-.45-2.18-1.15-2.78-2.42-3.43-3.18-1.6-12.51-2-15,1.9.34,2.35-.36,4.94-2.52,5.7-.1,3.71-.64,5.51-2.1,6.11-1.19.49-1.75-1.35-2.56-2.21a3.35,3.35,0,0,0-5.21,1.15A5.45,5.45,0,0,0,187.57,86.24Z" style="fill: rgb(255, 168, 167); transform-origin: 200.271px 86.394px;" id="elvv0bgjiivag" class="animable"></path><path d="M207.13,93.84a24,24,0,0,1-8.62-1.38c-2-.89-3.84-3.68-4.42-6.44,0,2.21.92,6.16,4,7.82s6.72,1.78,9,1.84Z" style="fill: rgb(242, 143, 143); transform-origin: 200.61px 90.85px;" id="el8dn4o9roeab" class="animable"></path><path d="M200.14,73.29l2.27-2.24a1.67,1.67,0,0,1,0,2.32A1.55,1.55,0,0,1,200.14,73.29Z" style="fill: rgb(38, 50, 56); transform-origin: 201.509px 72.4379px;" id="ele8nyq3oboo7" class="animable"></path><path d="M211.68,71.61l2.82,1.55a1.54,1.54,0,0,1-2.14.67A1.68,1.68,0,0,1,211.68,71.61Z" style="fill: rgb(38, 50, 56); transform-origin: 213.001px 72.8188px;" id="ely06bck14zd" class="animable"></path><path d="M201.8,76.93a1.3,1.3,0,1,0,2.6-.07,1.3,1.3,0,0,0-2.6.07Z" style="fill: rgb(38, 50, 56); transform-origin: 203.1px 76.895px;" id="elifmu2kr6atg" class="animable"></path><path d="M211.14,76.86a1.31,1.31,0,1,0,1.27-1.33A1.31,1.31,0,0,0,211.14,76.86Z" style="fill: rgb(38, 50, 56); transform-origin: 212.45px 76.8394px;" id="el38angypoo49" class="animable"></path><path d="M206.59,74.08l.07,8.35,4.53-1.07A19.39,19.39,0,0,0,206.59,74.08Z" style="fill: rgb(242, 143, 143); transform-origin: 208.89px 78.255px;" id="el1cuu4xr7wwh" class="animable"></path></g><g id="freepik--Tie--inject-141" class="animable" style="transform-origin: 200.105px 102.367px;"><path d="M205.13,107.82s-1.83-1.85-3.22-1.55c-.77.16-1.68,1.36-2.11,2.41s-.93,1.72-2.37.8a40.15,40.15,0,0,1-6.21-4.45,10.55,10.55,0,0,1-3.3-5.18c1.58-.77,3.33-4.53,4.31-4.72l.07,2.25c3.46,2.63,9,4.78,9.8,5.51A44.11,44.11,0,0,1,205.13,107.82Z" style="fill: rgb(69, 90, 100); transform-origin: 196.525px 102.522px;" id="eld7mnoy8fsor" class="animable"></path><path d="M212.29,107.33c-.21.59-2.42-4-3.34-3.87-.45,0-2.62,2.46-3.82,4.28.36-1.42,1.15-3.15,1.79-6a20.06,20.06,0,0,0,.15-4.73l.06-2.19c1,.08,1.59,1,2.58,2.81a19.1,19.1,0,0,1,1.83,4.81A30,30,0,0,1,212.29,107.33Z" style="fill: rgb(69, 90, 100); transform-origin: 208.71px 101.28px;" id="el4w7u9wp8otf" class="animable"></path></g><path d="M179.59,102c-8.66,2.38-9.21,4.76-11.71,12.31-1.29,3.88-4.16,13.39-5.08,16.43-2.85,9.47-2.46,14.49.45,16.23,3.33,2,17.57-21.36,17.57-21.36S187,107.37,179.59,102Z" style="fill: rgb(69, 90, 100); transform-origin: 172.045px 124.546px;" id="elz62oczotmlj" class="animable"></path><path d="M168.58,142.38c.62-.83,1.32-1.81,2-2.86,3.55-5.56,10.19-13.91,10.19-13.91a51.8,51.8,0,0,0,1.42-5.25c-2.59,1.84-13,8.77-15.88,11.73-3.15,3.22-3.21,5.77-3.79,8.76Z" style="fill: rgb(38, 50, 56); transform-origin: 172.355px 131.37px;" id="elvl54fqkrquk" class="animable"></path><path d="M180.05,123.57c3.15-2.14,4.26-2.77,6.39-5.53a37.72,37.72,0,0,1,5.71-5.7c1.57-1.41,2.44-3.59,3.27-4.57.58-.68,1.55.29,1.51,1.89a7.68,7.68,0,0,1-1.68,3.84c-1,1.39-.4,1.16,1,.79a49.88,49.88,0,0,1,7.79-1c1.46,0,2.91.36,2.8,1.3,0,0,2.26-.51,2.54.68s-1.35,2.28-1.35,2.28.21,1-1.48,1.83c-1,.47-3.92,1.3-5,1.72-1.19.47-2.44,1.12-2.44,1.12a51.66,51.66,0,0,1,5.27-.68c1.47,0,1.41,1-.18,1.94s-6.43,1.51-7.79,2.28a19.62,19.62,0,0,1-5.35,1.86,5.82,5.82,0,0,0-3.62,2.47c-1.46,2-8.2,9.16-9.87,11.44a15.21,15.21,0,0,1-6.82,5.07c-3.59,1.49-6.87.92-7.64.31s-1.46-2.89-.37-6.69c1.44-5,2.35-6,5.45-8.61C171.64,128.76,178.36,124.72,180.05,123.57Z" style="fill: rgb(255, 168, 167); transform-origin: 185.794px 127.548px;" id="el8k2i56kdtvv" class="animable"></path><path d="M195.25,113.5c-.6.84-.62,1.09-.23,1.07h0c-.55.1-1.62.44-1.8,0s.82-1.19,1.8-2.07a7.65,7.65,0,0,0,1.91-2.86A7.68,7.68,0,0,1,195.25,113.5Z" style="fill: rgb(242, 143, 143); transform-origin: 195.064px 112.215px;" id="eluokqe7ypr1" class="animable"></path><path d="M206.83,114.58a45.17,45.17,0,0,0-6.67.81,18.69,18.69,0,0,0-2.69.72c-.87.29-1.74.62-2.59,1,.91-.14,1.81-.31,2.7-.52s1.78-.43,2.65-.57,3-.57,3.93-.78S205.93,114.8,206.83,114.58Z" style="fill: rgb(242, 143, 143); transform-origin: 200.855px 115.845px;" id="elbx1ch47yw2" class="animable"></path><path d="M208,117.54a.67.67,0,0,0-.12-.35.64.64,0,0,0-.32-.22,2.46,2.46,0,0,0-.76-.12,9.43,9.43,0,0,0-1.51.16c-1,.18-3.21.6-4.19.83-.49.13-1,.26-1.46.42s-1,.37-1.42.56c-.93.37-1.86.78-2.78,1.21a29.72,29.72,0,0,0,2.92-.74c.49-.14,1-.34,1.42-.45s1-.26,1.44-.37c1-.24,3.18-.69,4.15-1a12.86,12.86,0,0,1,1.43-.34C207.27,117.09,207.85,117,208,117.54Z" style="fill: rgb(242, 143, 143); transform-origin: 201.72px 118.44px;" id="elnmvxsns6aqh" class="animable"></path><path d="M196.24,122.74s1.58-.56,2.47-.91,3.89-1.06,3.89-1.06h0c-.25.08-.82.24-1,.32-1.19.47-2.44,1.12-2.44,1.12A26.83,26.83,0,0,0,196.24,122.74Z" style="fill: rgb(242, 143, 143); transform-origin: 199.42px 121.755px;" id="elol97gue3h6i" class="animable"></path><path d="M204.76,87a1.11,1.11,0,0,0,1.58.14,1.35,1.35,0,0,0,.22-1.65,1.21,1.21,0,0,0-.38-.42,1.07,1.07,0,0,1,.6-.32,2,2,0,0,0-1.46.11,1.42,1.42,0,0,0-.62.66A1.65,1.65,0,0,0,204.76,87Z" style="fill: rgb(177, 102, 104); transform-origin: 205.667px 86.0337px;" id="elti6f6mxole" class="animable"></path><path d="M206.53,86.88a1.06,1.06,0,0,1-1.77.1,1.63,1.63,0,0,1-.19-1A2.8,2.8,0,0,1,206.53,86.88Z" style="fill: rgb(242, 143, 143); transform-origin: 205.543px 86.6948px;" id="els5dsu197ag" class="animable"></path><path d="M223.84,93.4s-.36-.17-.47-.91-.07-1.27-.19-2.1-.5-2.21-1.27-2.34-1.12,1.64-1.11,3.06a6.41,6.41,0,0,1-.91,3.9c-.91,1.63-1.66,3.72-.64,5.5Z" style="fill: rgb(242, 143, 143); transform-origin: 221.3px 94.2766px;" id="elr7fwui67pne" class="animable"></path><path d="M228.9,90.46a24.81,24.81,0,0,1-.62-4.24,12.06,12.06,0,0,0-1-3.13c-.49-1.09-.87-2.53-1.27-2.66s-1.06.33-1,1.2c0,0-.54-.63-1-1.29s-.78-1.48-1.41-1.61-.9.87-.66,1.56.42,1.07.42,1.07-.6.3,0,1.53a6.23,6.23,0,0,0,.9,1.37,5.94,5.94,0,0,0,.77,2.19,11.11,11.11,0,0,0,.89,2.38,6.68,6.68,0,0,0-.67,2.6c0,1.14.23,1.4-1,2.8A24.59,24.59,0,0,0,220,97.56c-.79,1.29-1.32,2.65-.2,4.26s2,2.77,3,4.47c.8,1.28,1.61,3,5,9.08,2.6,4.73,2.82,5.33,4.06,7,1.75,2.39,3.76,5.48,8.07,7s9.17.82,8.41-2.71c-.9-4.23-2.27-7.53-4.26-9.75a43.68,43.68,0,0,0-5.29-5c-2.14-1.86-3.83-3.82-6.47-6.48s-4.47-5.23-4.49-6.16a21.08,21.08,0,0,1,.9-5C229.23,92.5,229.51,92.55,228.9,90.46Z" style="fill: rgb(255, 168, 167); transform-origin: 233.789px 104.423px;" id="elj4ko7jl8cyd" class="animable"></path><path d="M219.25,100.51a8.25,8.25,0,0,0,1.32,2.22c.49.72,1,1.45,1.44,2.18s.94,1.47,1.38,2.22,1,1.83,1.38,2.59c-.5-.72-1-1.78-1.51-2.51s-.95-1.45-1.43-2.18l-1.42-2.19-.71-1.1A2.91,2.91,0,0,1,219.25,100.51Z" style="fill: rgb(242, 143, 143); transform-origin: 222.01px 105.115px;" id="elqnr3hlw901" class="animable"></path><path d="M225,81.63a6.46,6.46,0,0,0,.36,1.13c.14.36.31.72.48,1.06l0,.05V84a4.16,4.16,0,0,0,0,.62,4.48,4.48,0,0,0,.07.64,4.28,4.28,0,0,0,.4,1.19l.05.09,0,.08a3.11,3.11,0,0,0-.16.46,3.88,3.88,0,0,0-.11.49c0,.16,0,.33-.06.5a4.56,4.56,0,0,0,0,.52,3.1,3.1,0,0,1-.2-1,3.27,3.27,0,0,1,0-.54,3.37,3.37,0,0,1,.12-.53l0,.17a3.51,3.51,0,0,1-.52-1.32,4.05,4.05,0,0,1-.07-.7,3.49,3.49,0,0,1,.07-.71l0,.13a6.29,6.29,0,0,1-.38-1.16A3.82,3.82,0,0,1,225,81.63Z" style="fill: rgb(242, 143, 143); transform-origin: 225.663px 85.11px;" id="elce6eh5kmv9" class="animable"></path><path d="M222.34,81.36a4.47,4.47,0,0,0,.44.52,4.82,4.82,0,0,0,.51.41l0,0,0,.06a5.47,5.47,0,0,0,.58,1.28,3.57,3.57,0,0,0,.91,1l.11.09,0,.14a3.82,3.82,0,0,0-.06.77,7,7,0,0,0,0,.8c.05.27.09.54.16.8s.16.53.24.8a5.3,5.3,0,0,1-.42-.73,4,4,0,0,1-.29-.8,4.09,4.09,0,0,1-.15-.85,3.38,3.38,0,0,1,0-.89l.08.23a2.87,2.87,0,0,1-.57-.53,3.83,3.83,0,0,1-.45-.63,6.21,6.21,0,0,1-.31-.7,6.3,6.3,0,0,1-.18-.75l.06.09a2.93,2.93,0,0,1-.46-.54A2.43,2.43,0,0,1,222.34,81.36Z" style="fill: rgb(242, 143, 143); transform-origin: 223.785px 84.695px;" id="el06kddju6gjsa" class="animable"></path><path d="M225.24,90.35a3.27,3.27,0,0,1-.34,1.47,4.88,4.88,0,0,1-.86,1.25,5.34,5.34,0,0,1,.33-.68l.33-.66A12.74,12.74,0,0,0,225.24,90.35Z" style="fill: rgb(242, 143, 143); transform-origin: 224.64px 91.71px;" id="el3j50hrhkt1z" class="animable"></path><path d="M221.07,96.18a6.33,6.33,0,0,0-.25,2.68,5.27,5.27,0,0,0,.37,1.27,10.31,10.31,0,0,0,.66,1.21,3.6,3.6,0,0,1-1-1,3.48,3.48,0,0,1-.5-1.37A3.65,3.65,0,0,1,221.07,96.18Z" style="fill: rgb(242, 143, 143); transform-origin: 221.079px 98.76px;" id="elg4533br51pc" class="animable"></path></g></g></g><g id="freepik--character-1--inject-141" class="animable" style="transform-origin: 107.127px 235.563px;"><g id="freepik--character--inject-141" class="animable" style="transform-origin: 107.127px 235.563px;"><g id="freepik--bottom--inject-141" class="animable" style="transform-origin: 102.13px 273.819px;"><g id="freepik--bottom--inject-141" class="animable" style="transform-origin: 102.13px 273.819px;"><polygon points="109.12 328.89 111.99 327.63 109.24 326.76 109.12 328.89" style="fill: rgb(38, 50, 56); transform-origin: 110.555px 327.825px;" id="elx21lf6xnli" class="animable"></polygon><path d="M136.85,335.08S104.19,319,103.69,321.19a3.17,3.17,0,0,0,0,1.33.83.83,0,0,1-.08-.12l.45,4.15a10,10,0,0,0,5.09,2.34c0-.2.08-1.43.12-2.13a17,17,0,0,1,2.87,1.65c2.08,1.47,3.35,4,5.5,6.87,1.57,2.13,4.47,3.2,8.8,4,4.66.84,8.82.11,10-1.09A3.23,3.23,0,0,0,136.85,335.08Z" style="fill: rgb(38, 50, 56); transform-origin: 120.343px 330.313px;" id="el9fzec0we7s8" class="animable"></path><path d="M136,334.28c-.31-.34-1.45-1.68-3-3.14a59.57,59.57,0,0,0-4.64-4.22,18.46,18.46,0,0,1-2.3-2,25.07,25.07,0,0,1-1.58-2A35.21,35.21,0,0,1,120.7,316a15.43,15.43,0,0,1-1.27-3.58,22.49,22.49,0,0,1-.24-3.93c.18-5.93.35-6.86.55-11.37l-14.06-.08c.37,2.52.94,6,1.07,8.8.2,4.34.28,5.3-1.59,9.54a12.35,12.35,0,0,0-1.46,3.8c-.19,2.2,1.49,4.18,3.41,5.33,1.6,1,3.46,1.42,5,2.43a16.27,16.27,0,0,1,4,4.17c1.07,1.46,1.9,3.16,3.43,4.21a14.67,14.67,0,0,0,5.34,2.06,29.6,29.6,0,0,0,7.26.64C135.58,337.92,138.2,336.78,136,334.28Z" style="fill: rgb(200, 133, 106); transform-origin: 120.247px 317.539px;" id="el3bn089g67cl" class="animable"></path><path d="M134.15,331.8c-1.38-1.25-3.35-3-5.72-5a6.35,6.35,0,0,0-5.18.27c-5,2.37-6,6-6,6a7.06,7.06,0,0,0,3.89,3.64c5.61,2.68,15.85,2.29,16.05-.31C137.31,334.68,135.84,333.31,134.15,331.8Zm-28.64-17.31a26.64,26.64,0,0,1-1.3,2.47,4.66,4.66,0,0,0-.14,5,7.58,7.58,0,0,0,4.87,3.54C110.71,320.65,107.45,315.63,105.51,314.49Z" style="fill: rgb(55, 71, 79); transform-origin: 120.304px 326.517px;" id="eliyhad515h2r" class="animable"></path><path d="M81.9,321.46c.88,1.54.22,7.57.32,11.61.09,3.66.87,9-.34,12.54-1.43,4.23-4.93,9.79-9.8,5.6-3-2.6-4.71-5.88-5-11.16-.2-3.67,1.39-8.68,2.75-13.12,1.6-5.19,2.22-8,2.22-8Z" style="fill: rgb(38, 50, 56); transform-origin: 74.8065px 335.814px;" id="el3w0os0q7xu7" class="animable"></path><path d="M72.72,294.08a143.53,143.53,0,0,0-.58,18.52,38.46,38.46,0,0,1-.59,9.21c-.84,3.46-2,7.92-2.61,10.16-.82,3.14-1.44,5.11-.44,8.69a4.09,4.09,0,0,0,.34.81c1.46,3,5.34,5.3,6.61,5a2.22,2.22,0,0,0,2.2.83l.43-.09a3.52,3.52,0,0,0,.42-.15,4.24,4.24,0,0,0,2.19-2.62c.09-.24.7-.81.77-1.08a26.59,26.59,0,0,0,1-7.56c0-2.37.15-6.07.1-9.28-.06-4.13,1.18-9.55,2.39-16.24.61-3.41,1.68-8.77,2.93-13.22Z" style="fill: rgb(200, 133, 106); transform-origin: 77.9317px 320.712px;" id="elp5aqjcij4kb" class="animable"></path><path d="M68,336.06c3.16-1.25,13-1.12,14.29,3.24a15.22,15.22,0,0,1-3.67,10.24c-3.62,4.58-8-.54-9.63-3.76A16,16,0,0,1,68,336.06Z" style="fill: rgb(55, 71, 79); transform-origin: 74.973px 343.368px;" id="el80d786topji" class="animable"></path><path d="M84.24,194.94c-5.75,6.41-7,11.84-7.75,29.86-.82,20.95-.54,28.68-.72,31.2s-2,7.1-3.79,19.49-.09,37.45-.09,37.45.67,2.91,5.5,3.52a11.26,11.26,0,0,0,7.09-1.11s7.48-34.84,9.46-42.27,7.88-31.88,7.88-31.88l.94,23.54s-1.63,6.82-.7,17.78,3.71,27.61,3.71,27.61,1.84,2,7.69,2.11c6.22.08,7.24-3.82,7.24-3.82s4.07-38.07,4.55-50.43.62-41.93-3.51-60.94Z" style="fill: rgb(69, 90, 100); transform-origin: 98.3238px 255.78px;" id="ele89hz6qzvr" class="animable"></path><path d="M106.74,217.58l-4.92,23.62.94,23.54.75-23.74,4.33-19.37c3.07-.6,10.12-3.91,12.22-8.94C115.19,217.31,106.74,217.58,106.74,217.58ZM93.09,203.12c.61-2,1.25-3.94,2-5.91a29.44,29.44,0,0,0-3,5.57,54.26,54.26,0,0,0-2,5.95c-.56,2-1,4.05-1.4,6.12a39.42,39.42,0,0,0-.66,6.24c.58-2,1.14-4,1.69-6s1.08-4,1.66-6S92.48,205.1,93.09,203.12Zm-3-1.61c.74-1.2,1.47-2.39,2.16-3.65a21.76,21.76,0,0,0-3,3.06,29.29,29.29,0,0,0-2.48,3.48,27.23,27.23,0,0,0-1.93,3.81,16.49,16.49,0,0,0-1.14,4.12l2.08-3.67c.71-1.2,1.41-2.4,2.14-3.58S89.37,202.7,90.09,201.51Zm-5.62,79.3q-2.16,9.6-4,19.24,2.66-9.48,5.06-19c1.62-6.35,3.16-12.69,4.69-19.09s2.52-12.9,3.41-19.39,1.65-13,2.31-19.51c-1.17,6.45-2.25,12.91-3.34,19.36s-2.22,12.89-3.69,19.25S85.88,274.42,84.47,280.81ZM118.8,250c0,2.84.08,5.7-.08,8.5s-.2,8.23-.46,11.07c0,0-.69,16.71-.39,23.06.9-5.63,1.77-28.32,2.19-34.05.21-5.77-.07-11.45-.36-17.16s-.79-11.39-1.47-17.06l.42,17.1C118.7,244.29,118.78,247.13,118.8,250Z" style="fill: rgb(55, 71, 79); transform-origin: 100.302px 248.63px;" id="elofqgx6bb8r" class="animable"></path></g></g><g id="freepik--top--inject-141" class="animable" style="transform-origin: 111.205px 160.954px;"><path d="M82,132.61c.1,2.08,1,4.32,0,6.16s-3.74,2.45-5.33,4.06A4.87,4.87,0,0,0,75.27,147a12.9,12.9,0,0,0,1.64,3.73,5.59,5.59,0,0,1,.79,3.91,16.87,16.87,0,0,1-1.09,2.27,5.27,5.27,0,0,0-.09,4c.88,2.23,3.16,3.58,5.43,4.33a25.13,25.13,0,0,0,10.06,1c3.42-.3,7.14-1.32,9-4.2a12,12,0,0,0,1.53-5.73,54.14,54.14,0,0,0-3-22.25c-1.14-3.17-2.47-6.63-5-8.94-1.88-1.69-4.08-1.5-6.37-.82A8.34,8.34,0,0,0,82,132.61Z" style="fill: rgb(38, 50, 56); transform-origin: 88.9553px 145.09px;" id="elrm1n18q5dx" class="animable"></path><path d="M90.34,126.51c0,.26-.82.77-1,1a9.28,9.28,0,0,0-1.23,1.56,8.12,8.12,0,0,0-1.07,4,12.41,12.41,0,0,0,1.72,6.11,37.16,37.16,0,0,0,3.71,5.22l3.46,4.31a2.25,2.25,0,0,0,.9.78,2.11,2.11,0,0,0,1.06,0c1.8-.27,3.6-.58,5.39-.9a26.08,26.08,0,0,0,4.88-1.25,14,14,0,0,0,6.43-5.24,9.74,9.74,0,0,0,1.79-3.86c.06-.59-.22-1.1-.07-1.7a12.36,12.36,0,0,1,1.12-2.13A10.71,10.71,0,0,0,118.5,129c-.35-3.82-2.71-8.77-9.72-10.2C102.93,117.64,91.76,118.92,90.34,126.51Z" style="fill: rgb(38, 50, 56); transform-origin: 102.781px 133.993px;" id="el4l29j8bgd9u" class="animable"></path><path d="M112.09,157a18.39,18.39,0,0,1,9.67,2.56c3.9,2,24.23,28.38,24.23,28.38a10.1,10.1,0,0,1-7.12,1.44c-4.42-.62-16.22-7.23-16.22-7.23Z" style="fill: rgb(175, 97, 82); transform-origin: 129.04px 173.26px;" id="el5eu058ujk5h" class="animable"></path><path id="freepik--chest--inject-141" d="M83.66,198.74c-2.33-1.89-.62-3.9-.49-7.76.1-3-5.55-18.45-5.55-18.45S76,161.61,85.5,159L94,157.44s6.82-.5,10.71-.51c4.12,0,7.39,0,7.39,0,1.83,1.61,8.33,6.42,11,10.28a13.82,13.82,0,0,1-1,17.21,47.23,47.23,0,0,0,.21,7.19c.49,3.26,1.35,5.51-.3,7.52C118,204,94.66,205.94,83.66,198.74Z" style="fill: rgb(240, 240, 240); transform-origin: 101.575px 180.205px;" class="animable"></path><g id="freepik--head--inject-141" class="animable" style="transform-origin: 101.46px 144.422px;"><g id="freepik--head--inject-141" class="animable" style="transform-origin: 101.46px 144.422px;"><g id="freepik--head--inject-141" class="animable" style="transform-origin: 101.46px 144.422px;"><path d="M92,146.43a4.51,4.51,0,0,1-4.16-1.58c-2.28-2.44-2-4.95-1-6.64.84-1.39,3-2.3,4.45-1.38s1.66,1.79,2.28,2.9,2.14.22,1.57-4.29c3.07-1.5,1.37-5.73,3-7.86,2.09-2.71,6.08-1.41,8.25-.42a1.75,1.75,0,0,0,1.9-.29,4.62,4.62,0,0,1,5.2-.74c1.89,1,2.81,2.37,2.53,7a12.24,12.24,0,0,0,.21,3.14,30.76,30.76,0,0,1,.56,3.3c.27,4.32-1,9.43-3.24,11.59a9,9,0,0,1-6.51,2.28l0,3.57s7.3,6.19-1,6.19c-9.47,0-11.87-6.12-11.87-6.12l-.52-11.91S93.56,146.11,92,146.43Z" style="fill: rgb(200, 133, 106); transform-origin: 101.46px 144.422px;" id="elwhipwak9w8" class="animable"></path><path d="M107,153.39c-5-.12-10.36-2.78-11.85-6.9.43,4.3,3.44,6.59,6.36,7.66a16.65,16.65,0,0,0,5.51.93Z" style="fill: rgb(175, 97, 82); transform-origin: 101.085px 150.785px;" id="el38e4paln1vp" class="animable"></path></g><polygon points="106.65 134.26 107.72 142.87 112.26 140.75 106.65 134.26" style="fill: rgb(175, 97, 82); transform-origin: 109.455px 138.565px;" id="elxsewguqibd" class="animable"></polygon><path d="M104.42,136.26a1.28,1.28,0,1,1-1.31-1.29A1.3,1.3,0,0,1,104.42,136.26Z" style="fill: rgb(38, 50, 56); transform-origin: 103.14px 136.25px;" id="eltymgp1nd3wo" class="animable"></path><path d="M113.84,135.89a1.28,1.28,0,1,1-1.2-1.41A1.33,1.33,0,0,1,113.84,135.89Z" style="fill: rgb(38, 50, 56); transform-origin: 112.565px 135.758px;" id="elwnsluoyomyf" class="animable"></path><path d="M100.74,132.41l2.3-2.1a1.64,1.64,0,0,1-.11,2.26A1.52,1.52,0,0,1,100.74,132.41Z" style="fill: rgb(38, 50, 56); transform-origin: 102.09px 131.636px;" id="el2il21mvnjx2" class="animable"></path><path d="M110.91,130.31l2.83,1.34a1.5,1.5,0,0,1-2,.79A1.65,1.65,0,0,1,110.91,130.31Z" style="fill: rgb(38, 50, 56); transform-origin: 112.262px 131.441px;" id="elvq388s21uc9" class="animable"></path><path d="M105,146.45a1.14,1.14,0,0,0,1.64.15,1.41,1.41,0,0,0,.24-1.71,1.34,1.34,0,0,0-.4-.44,1.27,1.27,0,0,1,.62-.34,2.13,2.13,0,0,0-1.52.13,1.46,1.46,0,0,0-.64.68A1.7,1.7,0,0,0,105,146.45Z" style="fill: rgb(175, 97, 82); transform-origin: 105.943px 145.453px;" id="elhs4plwk4hz9" class="animable"></path><path d="M106.84,146.35a1.27,1.27,0,0,1-.21.25,1.14,1.14,0,0,1-1.64-.15,1.65,1.65,0,0,1-.2-1A3,3,0,0,1,106.84,146.35Z" style="fill: rgb(255, 168, 167); transform-origin: 105.809px 146.165px;" id="el6fynelfaa1u" class="animable"></path></g></g><path d="M85.5,159c-4.17,1-7.75,2.83-9.06,7.62-1.25,4.56-1.15,16.76-.58,23.38s1.16,10.16,2.26,11,10.07-9,9.89-9.25,1.74-15.94,1.74-15.94S90.66,161.61,85.5,159Z" style="fill: rgb(200, 133, 106); transform-origin: 82.6336px 180.025px;" id="el082y2spsf815" class="animable"></path><path d="M89.85,172.39a56.11,56.11,0,0,0-5.1,5.83c-3.68,4.79-5.21,7.68-5.55,11.09l10-8.76c.31-2.64.56-4.7.56-4.7S89.86,174.42,89.85,172.39Z" style="fill: rgb(175, 97, 82); transform-origin: 84.5253px 180.85px;" id="elzj9li4m69q" class="animable"></path><path d="M121.47,150.45s-.36-.18-.49-.95-.07-1.32-.19-2.18-.52-2.3-1.33-2.44-1.16,1.71-1.15,3.19a6.65,6.65,0,0,1-.94,4.06c-1,1.69-1.73,3.86-.67,5.71Z" style="fill: rgb(175, 97, 82); transform-origin: 118.825px 151.356px;" id="elgeuvdph9y6v" class="animable"></path><path d="M126.73,147.39a26.94,26.94,0,0,1-.64-4.41,12.6,12.6,0,0,0-1.06-3.25c-.5-1.14-.91-2.63-1.32-2.77s-1.1.34-1,1.25c0,0-.56-.65-1-1.34s-.81-1.54-1.46-1.68-.94.91-.69,1.62.44,1.12.44,1.12-.63.31,0,1.59a6.2,6.2,0,0,0,.94,1.42,6.18,6.18,0,0,0,.8,2.28,12.27,12.27,0,0,0,.92,2.48,6.92,6.92,0,0,0-.69,2.7c0,1.18.23,1.45-1.09,2.91a26.6,26.6,0,0,0-3.24,3.47c-.83,1.34-1.38,2.75-.21,4.42s2.07,2.89,3.17,4.65c.83,1.34,1.67,3.11,5.15,9.45,2.7,4.92,2.92,5.54,4.22,7.31,1.81,2.48,3.9,5.7,8.39,7.33s9.53.85,8.75-2.82c-.94-4.4-2.36-7.82-4.43-10.13a45.88,45.88,0,0,0-5.51-5.21c-2.23-1.94-4-4-6.73-6.74s-4.64-5.44-4.67-6.41a22.35,22.35,0,0,1,.94-5.25C127.08,149.51,127.37,149.57,126.73,147.39Z" style="fill: rgb(200, 133, 106); transform-origin: 131.975px 161.963px;" id="elxv24mlidtw" class="animable"></path><path d="M116.7,157.84a8.35,8.35,0,0,0,1.37,2.31c.51.75,1,1.51,1.5,2.27s1,1.53,1.44,2.3,1,1.91,1.43,2.7c-.52-.74-1.07-1.85-1.57-2.6s-1-1.52-1.49-2.28l-1.48-2.27-.74-1.14A3.23,3.23,0,0,1,116.7,157.84Z" style="fill: rgb(175, 97, 82); transform-origin: 119.57px 162.63px;" id="elb6dyxv3ohkm" class="animable"></path><path d="M122.67,138.21a6.64,6.64,0,0,0,.37,1.17,10,10,0,0,0,.51,1.1l0,.06v.08a4.61,4.61,0,0,0,0,.65,4.91,4.91,0,0,0,.06.66,4.25,4.25,0,0,0,.43,1.24l0,.1,0,.08c-.06.14-.12.31-.17.47s-.08.34-.11.51-.05.35-.06.52a4.87,4.87,0,0,0,0,.54,3,3,0,0,1-.2-1.08,3.57,3.57,0,0,1,0-.56,4,4,0,0,1,.13-.55l0,.18a3.67,3.67,0,0,1-.54-1.37,3.61,3.61,0,0,1-.07-.73,3.71,3.71,0,0,1,.07-.74l0,.13a6.36,6.36,0,0,1-.4-1.21A4,4,0,0,1,122.67,138.21Z" style="fill: rgb(175, 97, 82); transform-origin: 123.335px 141.8px;" id="elmxy8ql908ui" class="animable"></path><path d="M119.92,137.93a3.39,3.39,0,0,0,.45.54,5.25,5.25,0,0,0,.53.43l0,0,0,.07a5.49,5.49,0,0,0,.6,1.33,3.59,3.59,0,0,0,1,1.06l.11.09,0,.15a4.11,4.11,0,0,0-.07.8,7.91,7.91,0,0,0,.06.84c0,.27.09.55.17.83s.16.55.24.82a5.08,5.08,0,0,1-.44-.75,4.94,4.94,0,0,1-.3-.84,5.05,5.05,0,0,1-.15-.88,3.61,3.61,0,0,1,0-.92l.09.24a3.5,3.5,0,0,1-.6-.55,3.57,3.57,0,0,1-.46-.66,5.28,5.28,0,0,1-.33-.73,4.2,4.2,0,0,1-.18-.78l0,.09a3.57,3.57,0,0,1-.48-.55A2.8,2.8,0,0,1,119.92,137.93Z" style="fill: rgb(175, 97, 82); transform-origin: 121.465px 141.41px;" id="elj3klj004wnm" class="animable"></path><path d="M122.93,147.28a3.4,3.4,0,0,1-.35,1.53,5.06,5.06,0,0,1-.9,1.29c.1-.24.23-.47.34-.7s.24-.46.34-.69A11.21,11.21,0,0,0,122.93,147.28Z" style="fill: rgb(175, 97, 82); transform-origin: 122.305px 148.69px;" id="ela2svzv77ex" class="animable"></path><path d="M118.59,153.35a6.44,6.44,0,0,0-.25,2.77,4.81,4.81,0,0,0,.38,1.33,12.81,12.81,0,0,0,.68,1.25,3.75,3.75,0,0,1-1.53-2.51A3.8,3.8,0,0,1,118.59,153.35Z" style="fill: rgb(175, 97, 82); transform-origin: 118.614px 156.025px;" id="eli2c6s6su16" class="animable"></path><path d="M103.68,164h0a8.9,8.9,0,0,0-2.07-3.47A66.8,66.8,0,0,1,97.65,154a26.17,26.17,0,0,1-1-4.47c-.3-1.5-.61-2.52-2.14-2.25,0-.09,0-.31,0-.82-.06-1.19-.42-1.61-.94-1.81a1.86,1.86,0,0,0-.78-.07,2.21,2.21,0,0,0-.46-1.18c-.49-.6-1-.64-1.28-.4s-.3,1-.48,2.78a26.68,26.68,0,0,0-.26,4,2.89,2.89,0,0,0-.43,1.65,37.22,37.22,0,0,0,1.75,6.71c.38,1,3,5.7,3.56,7.41.75,1.9-.83,4.31-3.17,7.19s-4.85,6.1-7.13,8.71a51.2,51.2,0,0,0-5.08,6.9c-1.61,2.58-2.43,6.74-2.2,11,.21,3.67,4.88,3.57,8.93,1.23a18.55,18.55,0,0,0,7.61-7.37,69.32,69.32,0,0,0,4.72-10.48c2.71-7.31,3.5-9.55,4-11C103.59,168.87,104.3,166.31,103.68,164Z" style="fill: rgb(200, 133, 106); transform-origin: 90.7446px 172.551px;" id="el4vugj5x1seu" class="animable"></path><path d="M91.56,158.12c.47,1,1,2,1.57,3.07s1.07,2.05,1.56,3.1a10.53,10.53,0,0,1,.65,1.62,3.62,3.62,0,0,1-.1,1.76,11,11,0,0,1-1.63,3.07c-.67.95-1.41,1.84-2.13,2.73l-2.18,2.69c-1.46,1.78-2.94,3.56-4.48,5.27,1.48-1.77,2.9-3.58,4.34-5.39l2.15-2.7c.72-.9,1.45-1.79,2.11-2.73a10.89,10.89,0,0,0,1.61-3,3.35,3.35,0,0,0,.11-1.66,12.36,12.36,0,0,0-.61-1.59C93.58,162.26,92.48,160.23,91.56,158.12Z" style="fill: rgb(175, 97, 82); transform-origin: 90.1123px 169.775px;" id="elswl8qw48wt9" class="animable"></path><path d="M94.47,147.25a.87.87,0,0,0-.16.62c0,.23,0,.45.08.67l.16,1.36c.11.9.19,1.8.26,2.7,0,.44,0,.92.1,1.33a13,13,0,0,0,.36,1.28l.85,2.59a20.7,20.7,0,0,1-1.2-2.46,9.73,9.73,0,0,1-.44-1.32,4.3,4.3,0,0,1-.08-.69l-.06-.68c-.06-.91-.12-1.82-.15-2.73,0-.45,0-.91,0-1.36,0-.23,0-.46,0-.69A.85.85,0,0,1,94.47,147.25Z" style="fill: rgb(175, 97, 82); transform-origin: 95.155px 152.525px;" id="elszhab6g295" class="animable"></path><path d="M92.72,144.55c-.29.08-.34.38-.33.64s0,.53,0,.8c0,.54,0,1.09.06,1.63,0,1.09,0,2.17,0,3.24A12.33,12.33,0,0,0,93.1,154c.29,1,.65,2.06,1,3.1a26.56,26.56,0,0,1-1.29-3,9.55,9.55,0,0,1-.76-3.21c0-1.09,0-2.18.1-3.26,0-.54.06-1.07.08-1.61a7.36,7.36,0,0,1,.06-.82,1.19,1.19,0,0,1,.11-.41A.48.48,0,0,1,92.72,144.55Z" style="fill: rgb(175, 97, 82); transform-origin: 93.075px 150.825px;" id="el90ls4xse36g" class="animable"></path><path d="M90.24,149.76c.11.58.21,1.15.33,1.7A16.06,16.06,0,0,0,91,153.1a34.44,34.44,0,0,1,1,3.31,13.44,13.44,0,0,1-.81-1.55,14.45,14.45,0,0,1-.66-1.62,8.24,8.24,0,0,1-.38-1.72A7.4,7.4,0,0,1,90.24,149.76Z" style="fill: rgb(175, 97, 82); transform-origin: 91.0664px 153.085px;" id="eld107x9nreyq" class="animable"></path><path d="M98.8,182.72c1.11-3.07,2.22-6.14,3.29-9.23a47.51,47.51,0,0,0,1.37-4.69,10,10,0,0,0,.13-4.8l.1.06h0l-.08,0,0-.08a6.57,6.57,0,0,0-1.07-2.19c-.47-.68-1.06-1.27-1.53-2-.93-1.38-1.75-2.83-2.57-4.28l-.61-1.08c-.1-.19-.2-.35-.3-.55a5,5,0,0,1-.22-.61c-.22-.81-.36-1.63-.51-2.44a20.74,20.74,0,0,0-.51-2.42,1.73,1.73,0,0,0-.63-1,1.51,1.51,0,0,0-1.13-.14h-.11v-.11a6.58,6.58,0,0,0-.22-1.84,1.18,1.18,0,0,0-.57-.65,1.43,1.43,0,0,0-.87-.12h-.09v-.1a2.11,2.11,0,0,0-.39-1.07,1.18,1.18,0,0,0-.92-.56.47.47,0,0,0-.41.27,1.79,1.79,0,0,0-.15.56c-.05.4-.07.8-.11,1.2l-.24,2.41a16.13,16.13,0,0,0-.11,2.4v0a3,3,0,0,0-.39,2c.12.71.28,1.42.45,2.12a40.34,40.34,0,0,0,1.21,4.16A42.36,42.36,0,0,1,90.28,154c-.17-.7-.35-1.4-.47-2.12a2.94,2.94,0,0,1,.38-2.12v0a16.22,16.22,0,0,1,.1-2.42l.22-2.41c0-.4.06-.8.11-1.21a2,2,0,0,1,.16-.61.64.64,0,0,1,.54-.36,1.35,1.35,0,0,1,1.07.62,2.31,2.31,0,0,1,.43,1.17l-.1-.08a1.71,1.71,0,0,1,1,.13,1.39,1.39,0,0,1,.66.75,3.48,3.48,0,0,1,.19,1l0,.95-.12-.09a1.79,1.79,0,0,1,1.28.16,1.92,1.92,0,0,1,.71,1.07,23.27,23.27,0,0,1,.53,2.45c.16.81.3,1.63.53,2.42a3.08,3.08,0,0,0,.2.56c.08.17.2.36.3.54l.6,1.09c.81,1.45,1.62,2.9,2.54,4.27.45.69,1,1.28,1.51,2a6.71,6.71,0,0,1,1.09,2.25l-.1-.06h0l.08,0,0,.08a10.37,10.37,0,0,1-.15,4.89c-.39,1.59-.86,3.15-1.4,4.7C101.13,176.62,100,179.66,98.8,182.72Z" style="fill: rgb(175, 97, 82); transform-origin: 96.8476px 162.735px;" id="el34n6goh0x92" class="animable"></path></g></g></g><defs>     <filter id="active" height="200%">         <feMorphology in="SourceAlpha" result="DILATED" operator="dilate" radius="2"></feMorphology>                <feFlood flood-color="#32DFEC" flood-opacity="1" result="PINK"></feFlood>        <feComposite in="PINK" in2="DILATED" operator="in" result="OUTLINE"></feComposite>        <feMerge>            <feMergeNode in="OUTLINE"></feMergeNode>            <feMergeNode in="SourceGraphic"></feMergeNode>        </feMerge>    </filter>    <filter id="hover" height="200%">        <feMorphology in="SourceAlpha" result="DILATED" operator="dilate" radius="2"></feMorphology>                <feFlood flood-color="#ff0000" flood-opacity="0.5" result="PINK"></feFlood>        <feComposite in="PINK" in2="DILATED" operator="in" result="OUTLINE"></feComposite>        <feMerge>            <feMergeNode in="OUTLINE"></feMergeNode>            <feMergeNode in="SourceGraphic"></feMergeNode>        </feMerge>            <feColorMatrix type="matrix" values="0   0   0   0   0                0   1   0   0   0                0   0   0   0   0                0   0   0   1   0 "></feColorMatrix>    </filter></defs></svg>